solid OpenSCAD_Model
  facet normal -0.866025 -0.500001 0
    outer loop
      vertex 7.75 0 -4.5
      vertex 6.875 1.51554 4.5
      vertex 6.875 1.51554 -4.5
    endloop
  endfacet
  facet normal -0.866025 -0.500001 0
    outer loop
      vertex 6.875 1.51554 4.5
      vertex 7.75 0 -4.5
      vertex 7.75 0 4.5
    endloop
  endfacet
  facet normal 0.866025 -0.500001 0
    outer loop
      vertex 4.25 0 4.5
      vertex 5.125 1.51554 -4.5
      vertex 5.125 1.51554 4.5
    endloop
  endfacet
  facet normal 0.866025 -0.500001 0
    outer loop
      vertex 5.125 1.51554 -4.5
      vertex 4.25 0 4.5
      vertex 4.25 0 -4.5
    endloop
  endfacet
  facet normal 0 -1 0
    outer loop
      vertex 5.125 1.51554 -4.5
      vertex 6.875 1.51554 4.5
      vertex 5.125 1.51554 4.5
    endloop
  endfacet
  facet normal 0 -1 -0
    outer loop
      vertex 6.875 1.51554 4.5
      vertex 5.125 1.51554 -4.5
      vertex 6.875 1.51554 -4.5
    endloop
  endfacet
  facet normal 0 1 -0
    outer loop
      vertex 6.875 -1.51554 -4.5
      vertex 5.125 -1.51554 4.5
      vertex 6.875 -1.51554 4.5
    endloop
  endfacet
  facet normal 0 1 0
    outer loop
      vertex 5.125 -1.51554 4.5
      vertex 6.875 -1.51554 -4.5
      vertex 5.125 -1.51554 -4.5
    endloop
  endfacet
  facet normal 0.866025 0.500001 0
    outer loop
      vertex 5.125 -1.51554 4.5
      vertex 4.25 0 -4.5
      vertex 4.25 0 4.5
    endloop
  endfacet
  facet normal 0.866025 0.500001 0
    outer loop
      vertex 4.25 0 -4.5
      vertex 5.125 -1.51554 4.5
      vertex 5.125 -1.51554 -4.5
    endloop
  endfacet
  facet normal -0.866025 0.500001 0
    outer loop
      vertex 6.875 -1.51554 -4.5
      vertex 7.75 0 4.5
      vertex 7.75 0 -4.5
    endloop
  endfacet
  facet normal -0.866025 0.500001 0
    outer loop
      vertex 7.75 0 4.5
      vertex 6.875 -1.51554 -4.5
      vertex 6.875 -1.51554 4.5
    endloop
  endfacet
  facet normal -0.866025 -0.500001 0
    outer loop
      vertex -4.25 0 -4.5
      vertex -5.125 1.51554 4.5
      vertex -5.125 1.51554 -4.5
    endloop
  endfacet
  facet normal -0.866025 -0.500001 0
    outer loop
      vertex -5.125 1.51554 4.5
      vertex -4.25 0 -4.5
      vertex -4.25 0 4.5
    endloop
  endfacet
  facet normal 0.866025 -0.500001 0
    outer loop
      vertex -7.75 0 4.5
      vertex -6.875 1.51554 -4.5
      vertex -6.875 1.51554 4.5
    endloop
  endfacet
  facet normal 0.866025 -0.500001 0
    outer loop
      vertex -6.875 1.51554 -4.5
      vertex -7.75 0 4.5
      vertex -7.75 0 -4.5
    endloop
  endfacet
  facet normal 0 -1 0
    outer loop
      vertex -6.875 1.51554 -4.5
      vertex -5.125 1.51554 4.5
      vertex -6.875 1.51554 4.5
    endloop
  endfacet
  facet normal 0 -1 -0
    outer loop
      vertex -5.125 1.51554 4.5
      vertex -6.875 1.51554 -4.5
      vertex -5.125 1.51554 -4.5
    endloop
  endfacet
  facet normal 0 1 -0
    outer loop
      vertex -5.125 -1.51554 -4.5
      vertex -6.875 -1.51554 4.5
      vertex -5.125 -1.51554 4.5
    endloop
  endfacet
  facet normal 0 1 0
    outer loop
      vertex -6.875 -1.51554 4.5
      vertex -5.125 -1.51554 -4.5
      vertex -6.875 -1.51554 -4.5
    endloop
  endfacet
  facet normal 0.866025 0.500001 0
    outer loop
      vertex -6.875 -1.51554 4.5
      vertex -7.75 0 -4.5
      vertex -7.75 0 4.5
    endloop
  endfacet
  facet normal 0.866025 0.500001 0
    outer loop
      vertex -7.75 0 -4.5
      vertex -6.875 -1.51554 4.5
      vertex -6.875 -1.51554 -4.5
    endloop
  endfacet
  facet normal -0.866025 0.500001 0
    outer loop
      vertex -5.125 -1.51554 -4.5
      vertex -4.25 0 4.5
      vertex -4.25 0 -4.5
    endloop
  endfacet
  facet normal -0.866025 0.500001 0
    outer loop
      vertex -4.25 0 4.5
      vertex -5.125 -1.51554 -4.5
      vertex -5.125 -1.51554 4.5
    endloop
  endfacet
  facet normal -1 0 0
    outer loop
      vertex -8.75 -2.5 -4.5
      vertex -8.75 2.5 4.5
      vertex -8.75 2.5 -4.5
    endloop
  endfacet
  facet normal -1 -0 0
    outer loop
      vertex -8.75 2.5 4.5
      vertex -8.75 -2.5 -4.5
      vertex -8.75 -2.5 4.5
    endloop
  endfacet
  facet normal 0 0 1
    outer loop
      vertex 8.75 2.5 4.5
      vertex 7.75 0 4.5
      vertex 8.75 -2.5 4.5
    endloop
  endfacet
  facet normal 0 0 1
    outer loop
      vertex 8.75 2.5 4.5
      vertex 6.875 1.51554 4.5
      vertex 7.75 0 4.5
    endloop
  endfacet
  facet normal 0 0 1
    outer loop
      vertex 8.75 2.5 4.5
      vertex 5.125 1.51554 4.5
      vertex 6.875 1.51554 4.5
    endloop
  endfacet
  facet normal 0 0 1
    outer loop
      vertex 5.125 1.51554 4.5
      vertex -4.25 0 4.5
      vertex 4.25 0 4.5
    endloop
  endfacet
  facet normal 0 0 1
    outer loop
      vertex -5.125 1.51554 4.5
      vertex 5.125 1.51554 4.5
      vertex 8.75 2.5 4.5
    endloop
  endfacet
  facet normal 0 0 1
    outer loop
      vertex 5.125 1.51554 4.5
      vertex -5.125 1.51554 4.5
      vertex -4.25 0 4.5
    endloop
  endfacet
  facet normal -0 0 1
    outer loop
      vertex -8.75 2.5 4.5
      vertex -5.125 1.51554 4.5
      vertex 8.75 2.5 4.5
    endloop
  endfacet
  facet normal 0 0 1
    outer loop
      vertex -6.875 1.51554 4.5
      vertex -8.75 2.5 4.5
      vertex -7.75 0 4.5
    endloop
  endfacet
  facet normal 0 0 1
    outer loop
      vertex -5.125 1.51554 4.5
      vertex -8.75 2.5 4.5
      vertex -6.875 1.51554 4.5
    endloop
  endfacet
  facet normal -0 0 1
    outer loop
      vertex 6.875 -1.51554 4.5
      vertex 8.75 -2.5 4.5
      vertex 7.75 0 4.5
    endloop
  endfacet
  facet normal -0 0 1
    outer loop
      vertex 5.125 -1.51554 4.5
      vertex 8.75 -2.5 4.5
      vertex 6.875 -1.51554 4.5
    endloop
  endfacet
  facet normal -0 0 1
    outer loop
      vertex -4.25 0 4.5
      vertex 5.125 -1.51554 4.5
      vertex 4.25 0 4.5
    endloop
  endfacet
  facet normal 0 0 1
    outer loop
      vertex -5.125 -1.51554 4.5
      vertex 5.125 -1.51554 4.5
      vertex -4.25 0 4.5
    endloop
  endfacet
  facet normal 0 0 1
    outer loop
      vertex 5.125 -1.51554 4.5
      vertex -5.125 -1.51554 4.5
      vertex 8.75 -2.5 4.5
    endloop
  endfacet
  facet normal 0 0 1
    outer loop
      vertex -8.75 -2.5 4.5
      vertex -5.125 -1.51554 4.5
      vertex -6.875 -1.51554 4.5
    endloop
  endfacet
  facet normal 0 0 1
    outer loop
      vertex -5.125 -1.51554 4.5
      vertex -8.75 -2.5 4.5
      vertex 8.75 -2.5 4.5
    endloop
  endfacet
  facet normal 0 0 1
    outer loop
      vertex -7.75 0 4.5
      vertex -8.75 -2.5 4.5
      vertex -6.875 -1.51554 4.5
    endloop
  endfacet
  facet normal 0 0 1
    outer loop
      vertex -8.75 -2.5 4.5
      vertex -7.75 0 4.5
      vertex -8.75 2.5 4.5
    endloop
  endfacet
  facet normal 1 -0 0
    outer loop
      vertex 8.75 -2.5 4.5
      vertex 8.75 2.5 -4.5
      vertex 8.75 2.5 4.5
    endloop
  endfacet
  facet normal 1 0 0
    outer loop
      vertex 8.75 2.5 -4.5
      vertex 8.75 -2.5 4.5
      vertex 8.75 -2.5 -4.5
    endloop
  endfacet
  facet normal 0 1 -0
    outer loop
      vertex 8.75 2.5 -4.5
      vertex -8.75 2.5 4.5
      vertex 8.75 2.5 4.5
    endloop
  endfacet
  facet normal 0 1 0
    outer loop
      vertex -8.75 2.5 4.5
      vertex 8.75 2.5 -4.5
      vertex -8.75 2.5 -4.5
    endloop
  endfacet
  facet normal 0 0 -1
    outer loop
      vertex 8.75 -2.5 -4.5
      vertex 7.75 0 -4.5
      vertex 8.75 2.5 -4.5
    endloop
  endfacet
  facet normal 0 0 -1
    outer loop
      vertex 8.75 -2.5 -4.5
      vertex 6.875 -1.51554 -4.5
      vertex 7.75 0 -4.5
    endloop
  endfacet
  facet normal 0 0 -1
    outer loop
      vertex 8.75 -2.5 -4.5
      vertex 5.125 -1.51554 -4.5
      vertex 6.875 -1.51554 -4.5
    endloop
  endfacet
  facet normal 0 0 -1
    outer loop
      vertex 5.125 -1.51554 -4.5
      vertex -4.25 0 -4.5
      vertex 4.25 0 -4.5
    endloop
  endfacet
  facet normal 0 0 -1
    outer loop
      vertex -5.125 -1.51554 -4.5
      vertex 5.125 -1.51554 -4.5
      vertex 8.75 -2.5 -4.5
    endloop
  endfacet
  facet normal 0 0 -1
    outer loop
      vertex 5.125 -1.51554 -4.5
      vertex -5.125 -1.51554 -4.5
      vertex -4.25 0 -4.5
    endloop
  endfacet
  facet normal 0 0 -1
    outer loop
      vertex -8.75 -2.5 -4.5
      vertex -5.125 -1.51554 -4.5
      vertex 8.75 -2.5 -4.5
    endloop
  endfacet
  facet normal -0 0 -1
    outer loop
      vertex -6.875 -1.51554 -4.5
      vertex -8.75 -2.5 -4.5
      vertex -7.75 0 -4.5
    endloop
  endfacet
  facet normal -0 0 -1
    outer loop
      vertex -5.125 -1.51554 -4.5
      vertex -8.75 -2.5 -4.5
      vertex -6.875 -1.51554 -4.5
    endloop
  endfacet
  facet normal 0 0 -1
    outer loop
      vertex 6.875 1.51554 -4.5
      vertex 8.75 2.5 -4.5
      vertex 7.75 0 -4.5
    endloop
  endfacet
  facet normal 0 0 -1
    outer loop
      vertex 5.125 1.51554 -4.5
      vertex 8.75 2.5 -4.5
      vertex 6.875 1.51554 -4.5
    endloop
  endfacet
  facet normal 0 0 -1
    outer loop
      vertex -4.25 0 -4.5
      vertex 5.125 1.51554 -4.5
      vertex 4.25 0 -4.5
    endloop
  endfacet
  facet normal 0 0 -1
    outer loop
      vertex -5.125 1.51554 -4.5
      vertex 5.125 1.51554 -4.5
      vertex -4.25 0 -4.5
    endloop
  endfacet
  facet normal 0 0 -1
    outer loop
      vertex 5.125 1.51554 -4.5
      vertex -5.125 1.51554 -4.5
      vertex 8.75 2.5 -4.5
    endloop
  endfacet
  facet normal 0 0 -1
    outer loop
      vertex -8.75 2.5 -4.5
      vertex -5.125 1.51554 -4.5
      vertex -6.875 1.51554 -4.5
    endloop
  endfacet
  facet normal 0 0 -1
    outer loop
      vertex -5.125 1.51554 -4.5
      vertex -8.75 2.5 -4.5
      vertex 8.75 2.5 -4.5
    endloop
  endfacet
  facet normal 0 0 -1
    outer loop
      vertex -7.75 0 -4.5
      vertex -8.75 2.5 -4.5
      vertex -6.875 1.51554 -4.5
    endloop
  endfacet
  facet normal 0 0 -1
    outer loop
      vertex -8.75 2.5 -4.5
      vertex -7.75 0 -4.5
      vertex -8.75 -2.5 -4.5
    endloop
  endfacet
  facet normal 0 -1 0
    outer loop
      vertex -8.75 -2.5 -4.5
      vertex 8.75 -2.5 4.5
      vertex -8.75 -2.5 4.5
    endloop
  endfacet
  facet normal 0 -1 -0
    outer loop
      vertex 8.75 -2.5 4.5
      vertex -8.75 -2.5 -4.5
      vertex 8.75 -2.5 -4.5
    endloop
  endfacet
endsolid OpenSCAD_Model
