  0
SECTION
  2
BLOCKS
  0
ENDSEC
  0
SECTION
  2
ENTITIES
  0
LINE
  8
0
 10
-35
 20
-66
 11
-25
 21
-66
  0
LINE
  8
0
 10
-25
 20
-66
 11
-25
 21
-63
  0
LINE
  8
0
 10
-25
 20
-63
 11
-13
 21
-63
  0
LINE
  8
0
 10
-13
 20
-63
 11
-13
 21
-66
  0
LINE
  8
0
 10
-13
 20
-66
 11
35
 21
-66
  0
LINE
  8
0
 10
35
 20
-66
 11
35
 21
-80
  0
LINE
  8
0
 10
35
 20
-80
 11
51.1942
 21
-80
  0
LINE
  8
0
 10
51.1942
 20
-80
 11
60.5553
 21
-73.1988
  0
LINE
  8
0
 10
60.5553
 20
-73.1988
 11
69.252
 21
-65.032
  0
LINE
  8
0
 10
69.252
 20
-65.032
 11
76.8566
 21
-55.8396
  0
LINE
  8
0
 10
76.8566
 20
-55.8396
 11
83.2491
 21
-45.7666
  0
LINE
  8
0
 10
83.2491
 20
-45.7666
 11
88.3288
 21
-34.9718
  0
LINE
  8
0
 10
88.3288
 20
-34.9718
 11
92.0154
 21
-23.6255
  0
LINE
  8
0
 10
92.0154
 20
-23.6255
 11
94.2509
 21
-11.9066
  0
LINE
  8
0
 10
94.2509
 20
-11.9066
 11
95
 21
0
  0
LINE
  8
0
 10
95
 20
0
 11
94.2509
 21
11.9066
  0
LINE
  8
0
 10
94.2509
 20
11.9066
 11
92.0154
 21
23.6255
  0
LINE
  8
0
 10
92.0154
 20
23.6255
 11
88.3288
 21
34.9718
  0
LINE
  8
0
 10
88.3288
 20
34.9718
 11
83.2491
 21
45.7666
  0
LINE
  8
0
 10
83.2491
 20
45.7666
 11
76.8566
 21
55.8396
  0
LINE
  8
0
 10
76.8566
 20
55.8396
 11
69.252
 21
65.032
  0
LINE
  8
0
 10
69.252
 20
65.032
 11
60.5553
 21
73.1988
  0
LINE
  8
0
 10
60.5553
 20
73.1988
 11
51.1942
 21
80
  0
LINE
  8
0
 10
51.1942
 20
80
 11
35
 21
80
  0
LINE
  8
0
 10
35
 20
80
 11
35
 21
66
  0
LINE
  8
0
 10
35
 20
66
 11
-13
 21
66
  0
LINE
  8
0
 10
-13
 20
66
 11
-13
 21
63
  0
LINE
  8
0
 10
-13
 20
63
 11
-25
 21
63
  0
LINE
  8
0
 10
-25
 20
63
 11
-25
 21
66
  0
LINE
  8
0
 10
-25
 20
66
 11
-35
 21
66
  0
LINE
  8
0
 10
-35
 20
66
 11
-35
 21
80
  0
LINE
  8
0
 10
-35
 20
80
 11
-51.1942
 21
80
  0
LINE
  8
0
 10
-51.1942
 20
80
 11
-60.5553
 21
73.1988
  0
LINE
  8
0
 10
-60.5553
 20
73.1988
 11
-69.252
 21
65.032
  0
LINE
  8
0
 10
-69.252
 20
65.032
 11
-76.8566
 21
55.8396
  0
LINE
  8
0
 10
-76.8566
 20
55.8396
 11
-83.2491
 21
45.7666
  0
LINE
  8
0
 10
-83.2491
 20
45.7666
 11
-88.3288
 21
34.9718
  0
LINE
  8
0
 10
-88.3288
 20
34.9718
 11
-92.0154
 21
23.6255
  0
LINE
  8
0
 10
-92.0154
 20
23.6255
 11
-94.2509
 21
11.9066
  0
LINE
  8
0
 10
-94.2509
 20
11.9066
 11
-95
 21
0
  0
LINE
  8
0
 10
-95
 20
0
 11
-94.2509
 21
-11.9066
  0
LINE
  8
0
 10
-94.2509
 20
-11.9066
 11
-92.0154
 21
-23.6255
  0
LINE
  8
0
 10
-92.0154
 20
-23.6255
 11
-88.3288
 21
-34.9718
  0
LINE
  8
0
 10
-88.3288
 20
-34.9718
 11
-83.2491
 21
-45.7666
  0
LINE
  8
0
 10
-83.2491
 20
-45.7666
 11
-76.8566
 21
-55.8396
  0
LINE
  8
0
 10
-76.8566
 20
-55.8396
 11
-69.252
 21
-65.032
  0
LINE
  8
0
 10
-69.252
 20
-65.032
 11
-60.5553
 21
-73.1988
  0
LINE
  8
0
 10
-60.5553
 20
-73.1988
 11
-51.1942
 21
-80
  0
LINE
  8
0
 10
-51.1942
 20
-80
 11
-35
 21
-80
  0
LINE
  8
0
 10
-35
 20
-80
 11
-35
 21
-66
  0
LINE
  8
0
 10
72.053
 20
49.6363
 11
71.3
 21
51.2
  0
LINE
  8
0
 10
71.3
 20
51.2
 11
72.053
 21
52.7637
  0
LINE
  8
0
 10
72.053
 20
52.7637
 11
73.745
 21
53.1499
  0
LINE
  8
0
 10
73.745
 20
53.1499
 11
75.1019
 21
52.0678
  0
LINE
  8
0
 10
75.1019
 20
52.0678
 11
75.1019
 21
50.3322
  0
LINE
  8
0
 10
75.1019
 20
50.3322
 11
73.745
 21
49.2501
  0
LINE
  8
0
 10
73.745
 20
49.2501
 11
72.053
 21
49.6363
  0
LINE
  8
0
 10
19.953
 20
44.5363
 11
19.2
 21
46.1
  0
LINE
  8
0
 10
19.2
 20
46.1
 11
19.953
 21
47.6637
  0
LINE
  8
0
 10
19.953
 20
47.6637
 11
21.645
 21
48.0499
  0
LINE
  8
0
 10
21.645
 20
48.0499
 11
23.0019
 21
46.9678
  0
LINE
  8
0
 10
23.0019
 20
46.9678
 11
23.0019
 21
45.2322
  0
LINE
  8
0
 10
23.0019
 20
45.2322
 11
21.645
 21
44.1501
  0
LINE
  8
0
 10
21.645
 20
44.1501
 11
19.953
 21
44.5363
  0
LINE
  8
0
 10
-25
 20
40
 11
-25
 21
43
  0
LINE
  8
0
 10
-25
 20
43
 11
-13
 21
43
  0
LINE
  8
0
 10
-13
 20
43
 11
-13
 21
40
  0
LINE
  8
0
 10
-13
 20
40
 11
-25
 21
40
  0
LINE
  8
0
 10
-43.8678
 20
22.1981
 11
-44.9498
 21
23.5549
  0
LINE
  8
0
 10
-44.9498
 20
23.5549
 11
-44.5637
 21
25.247
  0
LINE
  8
0
 10
-44.5637
 20
25.247
 11
-43
 21
26
  0
LINE
  8
0
 10
-43
 20
26
 11
-41.4363
 21
25.247
  0
LINE
  8
0
 10
-41.4363
 20
25.247
 11
-41.0501
 21
23.5549
  0
LINE
  8
0
 10
-41.0501
 20
23.5549
 11
-42.1322
 21
22.1981
  0
LINE
  8
0
 10
-42.1322
 20
22.1981
 11
-43.8678
 21
22.1981
  0
LINE
  8
0
 10
-86.5768
 20
20.0669
 11
-86.216
 21
21.7645
  0
LINE
  8
0
 10
-86.216
 20
21.7645
 11
-84.6638
 21
22.5409
  0
LINE
  8
0
 10
-84.6638
 20
22.5409
 11
-83.089
 21
21.8113
  0
LINE
  8
0
 10
-83.089
 20
21.8113
 11
-82.6776
 21
20.1253
  0
LINE
  8
0
 10
-82.6776
 20
20.1253
 11
-83.7392
 21
18.7523
  0
LINE
  8
0
 10
-83.7392
 20
18.7523
 11
-85.4746
 21
18.7264
  0
LINE
  8
0
 10
-85.4746
 20
18.7264
 11
-86.5768
 21
20.0669
  0
LINE
  8
0
 10
-69.3019
 20
18.6322
 11
-69.3019
 21
20.3678
  0
LINE
  8
0
 10
-69.3019
 20
20.3678
 11
-67.945
 21
21.4498
  0
LINE
  8
0
 10
-67.945
 20
21.4498
 11
-66.253
 21
21.0637
  0
LINE
  8
0
 10
-66.253
 20
21.0637
 11
-65.5
 21
19.5
  0
LINE
  8
0
 10
-65.5
 20
19.5
 11
-66.253
 21
17.9363
  0
LINE
  8
0
 10
-66.253
 20
17.9363
 11
-67.945
 21
17.5501
  0
LINE
  8
0
 10
-67.945
 20
17.5501
 11
-69.3019
 21
18.6322
  0
LINE
  8
0
 10
19.953
 20
16.6363
 11
19.2
 21
18.2
  0
LINE
  8
0
 10
19.2
 20
18.2
 11
19.953
 21
19.7637
  0
LINE
  8
0
 10
19.953
 20
19.7637
 11
21.645
 21
20.1499
  0
LINE
  8
0
 10
21.645
 20
20.1499
 11
23.0019
 21
19.0678
  0
LINE
  8
0
 10
23.0019
 20
19.0678
 11
23.0019
 21
17.3322
  0
LINE
  8
0
 10
23.0019
 20
17.3322
 11
21.645
 21
16.2501
  0
LINE
  8
0
 10
21.645
 20
16.2501
 11
19.953
 21
16.6363
  0
LINE
  8
0
 10
-89.0718
 20
8.32916
 11
-88.7109
 21
10.0268
  0
LINE
  8
0
 10
-88.7109
 20
10.0268
 11
-87.1587
 21
10.8031
  0
LINE
  8
0
 10
-87.1587
 20
10.8031
 11
-85.584
 21
10.0735
  0
LINE
  8
0
 10
-85.584
 20
10.0735
 11
-85.1725
 21
8.3875
  0
LINE
  8
0
 10
-85.1725
 20
8.3875
 11
-86.2342
 21
7.01457
  0
LINE
  8
0
 10
-86.2342
 20
7.01457
 11
-87.9695
 21
6.9886
  0
LINE
  8
0
 10
-87.9695
 20
6.9886
 11
-89.0718
 21
8.32916
  0
LINE
  8
0
 10
-0.964279
 20
-7.94167
 11
-2.83684
 21
-7.48012
  0
LINE
  8
0
 10
-2.83684
 20
-7.48012
 11
-4.54451
 21
-6.58386
  0
LINE
  8
0
 10
-4.54451
 20
-6.58386
 11
-5.98808
 21
-5.30498
  0
LINE
  8
0
 10
-5.98808
 20
-5.30498
 11
-7.08363
 21
-3.71777
  0
LINE
  8
0
 10
-7.08363
 20
-3.71777
 11
-7.76753
 21
-1.91452
  0
LINE
  8
0
 10
-7.76753
 20
-1.91452
 11
-8
 21
0
  0
LINE
  8
0
 10
-8
 20
0
 11
-7.76753
 21
1.91452
  0
LINE
  8
0
 10
-7.76753
 20
1.91452
 11
-7.08363
 21
3.71777
  0
LINE
  8
0
 10
-7.08363
 20
3.71777
 11
-5.98808
 21
5.30498
  0
LINE
  8
0
 10
-5.98808
 20
5.30498
 11
-4.54451
 21
6.58386
  0
LINE
  8
0
 10
-4.54451
 20
6.58386
 11
-2.83684
 21
7.48012
  0
LINE
  8
0
 10
-2.83684
 20
7.48012
 11
-0.964279
 21
7.94167
  0
LINE
  8
0
 10
-0.964279
 20
7.94167
 11
0.964279
 21
7.94167
  0
LINE
  8
0
 10
0.964279
 20
7.94167
 11
2.83684
 21
7.48012
  0
LINE
  8
0
 10
2.83684
 20
7.48012
 11
4.54451
 21
6.58386
  0
LINE
  8
0
 10
4.54451
 20
6.58386
 11
5.98808
 21
5.30498
  0
LINE
  8
0
 10
5.98808
 20
5.30498
 11
7.08363
 21
3.71777
  0
LINE
  8
0
 10
7.08363
 20
3.71777
 11
7.76753
 21
1.91452
  0
LINE
  8
0
 10
7.76753
 20
1.91452
 11
8
 21
0
  0
LINE
  8
0
 10
8
 20
0
 11
7.76753
 21
-1.91452
  0
LINE
  8
0
 10
7.76753
 20
-1.91452
 11
7.08363
 21
-3.71777
  0
LINE
  8
0
 10
7.08363
 20
-3.71777
 11
5.98808
 21
-5.30498
  0
LINE
  8
0
 10
5.98808
 20
-5.30498
 11
4.54451
 21
-6.58386
  0
LINE
  8
0
 10
4.54451
 20
-6.58386
 11
2.83684
 21
-7.48012
  0
LINE
  8
0
 10
2.83684
 20
-7.48012
 11
0.964279
 21
-7.94167
  0
LINE
  8
0
 10
0.964279
 20
-7.94167
 11
-0.964279
 21
-7.94167
  0
LINE
  8
0
 10
71.253
 20
1.43633
 11
70.5
 21
3
  0
LINE
  8
0
 10
70.5
 20
3
 11
71.253
 21
4.56366
  0
LINE
  8
0
 10
71.253
 20
4.56366
 11
72.945
 21
4.94984
  0
LINE
  8
0
 10
72.945
 20
4.94984
 11
74.3019
 21
3.86777
  0
LINE
  8
0
 10
74.3019
 20
3.86777
 11
74.3019
 21
2.13222
  0
LINE
  8
0
 10
74.3019
 20
2.13222
 11
72.945
 21
1.05014
  0
LINE
  8
0
 10
72.945
 20
1.05014
 11
71.253
 21
1.43633
  0
LINE
  8
0
 10
-43.8678
 20
0.198059
 11
-44.9498
 21
1.55495
  0
LINE
  8
0
 10
-44.9498
 20
1.55495
 11
-44.5637
 21
3.24698
  0
LINE
  8
0
 10
-44.5637
 20
3.24698
 11
-43
 21
4
  0
LINE
  8
0
 10
-43
 20
4
 11
-41.4363
 21
3.24698
  0
LINE
  8
0
 10
-41.4363
 20
3.24698
 11
-41.0501
 21
1.55495
  0
LINE
  8
0
 10
-41.0501
 20
1.55495
 11
-42.1322
 21
0.198059
  0
LINE
  8
0
 10
-42.1322
 20
0.198059
 11
-43.8678
 21
0.198059
  0
LINE
  8
0
 10
-88.7109
 20
-10.0268
 11
-89.0718
 21
-8.32916
  0
LINE
  8
0
 10
-89.0718
 20
-8.32916
 11
-87.9695
 21
-6.9886
  0
LINE
  8
0
 10
-87.9695
 20
-6.9886
 11
-86.2342
 21
-7.01457
  0
LINE
  8
0
 10
-86.2342
 20
-7.01457
 11
-85.1725
 21
-8.3875
  0
LINE
  8
0
 10
-85.1725
 20
-8.3875
 11
-85.584
 21
-10.0735
  0
LINE
  8
0
 10
-85.584
 20
-10.0735
 11
-87.1587
 21
-10.8031
  0
LINE
  8
0
 10
-87.1587
 20
-10.8031
 11
-88.7109
 21
-10.0268
  0
LINE
  8
0
 10
41.0638
 20
-14.4398
 11
40.72
 21
-12.7387
  0
LINE
  8
0
 10
40.72
 20
-12.7387
 11
41.8355
 21
-11.4092
  0
LINE
  8
0
 10
41.8355
 20
-11.4092
 11
43.5705
 21
-11.4524
  0
LINE
  8
0
 10
43.5705
 20
-11.4524
 11
44.6185
 21
-12.8359
  0
LINE
  8
0
 10
44.6185
 20
-12.8359
 11
44.1902
 21
-14.5178
  0
LINE
  8
0
 10
44.1902
 20
-14.5178
 11
42.6082
 21
-15.2316
  0
LINE
  8
0
 10
42.6082
 20
-15.2316
 11
41.0638
 21
-14.4398
  0
LINE
  8
0
 10
75.75
 20
-26.5
 11
75.75
 21
-13.5
  0
LINE
  8
0
 10
75.75
 20
-13.5
 11
84.25
 21
-13.5
  0
LINE
  8
0
 10
84.25
 20
-13.5
 11
84.25
 21
-26.5
  0
LINE
  8
0
 10
84.25
 20
-26.5
 11
75.75
 21
-26.5
  0
LINE
  8
0
 10
-69.3019
 20
-20.3678
 11
-69.3019
 21
-18.6322
  0
LINE
  8
0
 10
-69.3019
 20
-18.6322
 11
-67.945
 21
-17.5501
  0
LINE
  8
0
 10
-67.945
 20
-17.5501
 11
-66.253
 21
-17.9363
  0
LINE
  8
0
 10
-66.253
 20
-17.9363
 11
-65.5
 21
-19.5
  0
LINE
  8
0
 10
-65.5
 20
-19.5
 11
-66.253
 21
-21.0637
  0
LINE
  8
0
 10
-66.253
 20
-21.0637
 11
-67.945
 21
-21.4498
  0
LINE
  8
0
 10
-67.945
 20
-21.4498
 11
-69.3019
 21
-20.3678
  0
LINE
  8
0
 10
-86.216
 20
-21.7645
 11
-86.5768
 21
-20.0669
  0
LINE
  8
0
 10
-86.5768
 20
-20.0669
 11
-85.4746
 21
-18.7264
  0
LINE
  8
0
 10
-85.4746
 20
-18.7264
 11
-83.7392
 21
-18.7523
  0
LINE
  8
0
 10
-83.7392
 20
-18.7523
 11
-82.6776
 21
-20.1253
  0
LINE
  8
0
 10
-82.6776
 20
-20.1253
 11
-83.089
 21
-21.8113
  0
LINE
  8
0
 10
-83.089
 20
-21.8113
 11
-84.6638
 21
-22.5409
  0
LINE
  8
0
 10
-84.6638
 20
-22.5409
 11
-86.216
 21
-21.7645
  0
LINE
  8
0
 10
70.1735
 20
-38.8657
 11
69.8297
 21
-37.1646
  0
LINE
  8
0
 10
69.8297
 20
-37.1646
 11
70.9452
 21
-35.8351
  0
LINE
  8
0
 10
70.9452
 20
-35.8351
 11
72.6802
 21
-35.8784
  0
LINE
  8
0
 10
72.6802
 20
-35.8784
 11
73.7281
 21
-37.2618
  0
LINE
  8
0
 10
73.7281
 20
-37.2618
 11
73.2999
 21
-38.9437
  0
LINE
  8
0
 10
73.2999
 20
-38.9437
 11
71.7179
 21
-39.6575
  0
LINE
  8
0
 10
71.7179
 20
-39.6575
 11
70.1735
 21
-38.8657
  0
LINE
  8
0
 10
-25
 20
-43
 11
-25
 21
-40
  0
LINE
  8
0
 10
-25
 20
-40
 11
-13
 21
-40
  0
LINE
  8
0
 10
-13
 20
-40
 11
-13
 21
-43
  0
LINE
  8
0
 10
-13
 20
-43
 11
-25
 21
-43
  0
LINE
  8
0
 10
16.6379
 20
-43.5495
 11
16.294
 21
-41.8484
  0
LINE
  8
0
 10
16.294
 20
-41.8484
 11
17.4096
 21
-40.5189
  0
LINE
  8
0
 10
17.4096
 20
-40.5189
 11
19.1446
 21
-40.5621
  0
LINE
  8
0
 10
19.1446
 20
-40.5621
 11
20.1925
 21
-41.9456
  0
LINE
  8
0
 10
20.1925
 20
-41.9456
 11
19.7643
 21
-43.6275
  0
LINE
  8
0
 10
19.7643
 20
-43.6275
 11
18.1823
 21
-44.3412
  0
LINE
  8
0
 10
18.1823
 20
-44.3412
 11
16.6379
 21
-43.5495
  0
LINE
  8
0
 10
45.7476
 20
-67.9754
 11
45.4037
 21
-66.2743
  0
LINE
  8
0
 10
45.4037
 20
-66.2743
 11
46.5193
 21
-64.9448
  0
LINE
  8
0
 10
46.5193
 20
-64.9448
 11
48.2543
 21
-64.9881
  0
LINE
  8
0
 10
48.2543
 20
-64.9881
 11
49.3022
 21
-66.3715
  0
LINE
  8
0
 10
49.3022
 20
-66.3715
 11
48.874
 21
-68.0534
  0
LINE
  8
0
 10
48.874
 20
-68.0534
 11
47.292
 21
-68.7672
  0
LINE
  8
0
 10
47.292
 20
-68.7672
 11
45.7476
 21
-67.9754
  0
ENDSEC
  0
SECTION
  2
OBJECTS
  0
DICTIONARY
  0
ENDSEC
  0
EOF
