  0
SECTION
  2
BLOCKS
  0
ENDSEC
  0
SECTION
  2
ENTITIES
  0
LINE
  8
0
 10
-35
 20
-66
 11
-25
 21
-66
  0
LINE
  8
0
 10
-25
 20
-66
 11
-25
 21
-63
  0
LINE
  8
0
 10
-25
 20
-63
 11
-13
 21
-63
  0
LINE
  8
0
 10
-13
 20
-63
 11
-13
 21
-66
  0
LINE
  8
0
 10
-13
 20
-66
 11
35
 21
-66
  0
LINE
  8
0
 10
35
 20
-66
 11
35
 21
-80
  0
LINE
  8
0
 10
35
 20
-80
 11
51.1942
 21
-80
  0
LINE
  8
0
 10
51.1942
 20
-80
 11
60.5553
 21
-73.1988
  0
LINE
  8
0
 10
60.5553
 20
-73.1988
 11
69.252
 21
-65.032
  0
LINE
  8
0
 10
69.252
 20
-65.032
 11
76.8566
 21
-55.8396
  0
LINE
  8
0
 10
76.8566
 20
-55.8396
 11
83.2491
 21
-45.7666
  0
LINE
  8
0
 10
83.2491
 20
-45.7666
 11
88.3288
 21
-34.9718
  0
LINE
  8
0
 10
88.3288
 20
-34.9718
 11
92.0154
 21
-23.6255
  0
LINE
  8
0
 10
92.0154
 20
-23.6255
 11
94.2509
 21
-11.9066
  0
LINE
  8
0
 10
94.2509
 20
-11.9066
 11
95
 21
0
  0
LINE
  8
0
 10
95
 20
0
 11
94.2509
 21
11.9066
  0
LINE
  8
0
 10
94.2509
 20
11.9066
 11
92.0154
 21
23.6255
  0
LINE
  8
0
 10
92.0154
 20
23.6255
 11
88.3288
 21
34.9718
  0
LINE
  8
0
 10
88.3288
 20
34.9718
 11
83.2491
 21
45.7666
  0
LINE
  8
0
 10
83.2491
 20
45.7666
 11
76.8566
 21
55.8396
  0
LINE
  8
0
 10
76.8566
 20
55.8396
 11
69.252
 21
65.032
  0
LINE
  8
0
 10
69.252
 20
65.032
 11
60.5553
 21
73.1988
  0
LINE
  8
0
 10
60.5553
 20
73.1988
 11
51.1942
 21
80
  0
LINE
  8
0
 10
51.1942
 20
80
 11
35
 21
80
  0
LINE
  8
0
 10
35
 20
80
 11
35
 21
66
  0
LINE
  8
0
 10
35
 20
66
 11
-13
 21
66
  0
LINE
  8
0
 10
-13
 20
66
 11
-13
 21
63
  0
LINE
  8
0
 10
-13
 20
63
 11
-25
 21
63
  0
LINE
  8
0
 10
-25
 20
63
 11
-25
 21
66
  0
LINE
  8
0
 10
-25
 20
66
 11
-35
 21
66
  0
LINE
  8
0
 10
-35
 20
66
 11
-35
 21
80
  0
LINE
  8
0
 10
-35
 20
80
 11
-51.1942
 21
80
  0
LINE
  8
0
 10
-51.1942
 20
80
 11
-60.5553
 21
73.1988
  0
LINE
  8
0
 10
-60.5553
 20
73.1988
 11
-69.252
 21
65.032
  0
LINE
  8
0
 10
-69.252
 20
65.032
 11
-76.8566
 21
55.8396
  0
LINE
  8
0
 10
-76.8566
 20
55.8396
 11
-83.2491
 21
45.7666
  0
LINE
  8
0
 10
-83.2491
 20
45.7666
 11
-88.3288
 21
34.9718
  0
LINE
  8
0
 10
-88.3288
 20
34.9718
 11
-92.0154
 21
23.6255
  0
LINE
  8
0
 10
-92.0154
 20
23.6255
 11
-94.2509
 21
11.9066
  0
LINE
  8
0
 10
-94.2509
 20
11.9066
 11
-95
 21
0
  0
LINE
  8
0
 10
-95
 20
0
 11
-94.2509
 21
-11.9066
  0
LINE
  8
0
 10
-94.2509
 20
-11.9066
 11
-92.0154
 21
-23.6255
  0
LINE
  8
0
 10
-92.0154
 20
-23.6255
 11
-88.3288
 21
-34.9718
  0
LINE
  8
0
 10
-88.3288
 20
-34.9718
 11
-83.2491
 21
-45.7666
  0
LINE
  8
0
 10
-83.2491
 20
-45.7666
 11
-76.8566
 21
-55.8396
  0
LINE
  8
0
 10
-76.8566
 20
-55.8396
 11
-69.252
 21
-65.032
  0
LINE
  8
0
 10
-69.252
 20
-65.032
 11
-60.5553
 21
-73.1988
  0
LINE
  8
0
 10
-60.5553
 20
-73.1988
 11
-51.1942
 21
-80
  0
LINE
  8
0
 10
-51.1942
 20
-80
 11
-35
 21
-80
  0
LINE
  8
0
 10
-35
 20
-80
 11
-35
 21
-66
  0
LINE
  8
0
 10
71.053
 20
44.6363
 11
70.3
 21
46.2
  0
LINE
  8
0
 10
70.3
 20
46.2
 11
71.053
 21
47.7637
  0
LINE
  8
0
 10
71.053
 20
47.7637
 11
72.745
 21
48.1499
  0
LINE
  8
0
 10
72.745
 20
48.1499
 11
74.1019
 21
47.0678
  0
LINE
  8
0
 10
74.1019
 20
47.0678
 11
74.1019
 21
45.3322
  0
LINE
  8
0
 10
74.1019
 20
45.3322
 11
72.745
 21
44.2501
  0
LINE
  8
0
 10
72.745
 20
44.2501
 11
71.053
 21
44.6363
  0
LINE
  8
0
 10
18.953
 20
39.5363
 11
18.2
 21
41.1
  0
LINE
  8
0
 10
18.2
 20
41.1
 11
18.953
 21
42.6637
  0
LINE
  8
0
 10
18.953
 20
42.6637
 11
20.645
 21
43.0499
  0
LINE
  8
0
 10
20.645
 20
43.0499
 11
22.0019
 21
41.9678
  0
LINE
  8
0
 10
22.0019
 20
41.9678
 11
22.0019
 21
40.2322
  0
LINE
  8
0
 10
22.0019
 20
40.2322
 11
20.645
 21
39.1501
  0
LINE
  8
0
 10
20.645
 20
39.1501
 11
18.953
 21
39.5363
  0
LINE
  8
0
 10
-25
 20
40
 11
-25
 21
43
  0
LINE
  8
0
 10
-25
 20
43
 11
-13
 21
43
  0
LINE
  8
0
 10
-13
 20
43
 11
-13
 21
40
  0
LINE
  8
0
 10
-13
 20
40
 11
-25
 21
40
  0
LINE
  8
0
 10
0
 20
24
 11
0
 21
36
  0
LINE
  8
0
 10
0
 20
36
 11
10
 21
36
  0
LINE
  8
0
 10
10
 20
36
 11
10
 21
24
  0
LINE
  8
0
 10
10
 20
24
 11
0
 21
24
  0
LINE
  8
0
 10
-43.8678
 20
22.1981
 11
-44.9498
 21
23.5549
  0
LINE
  8
0
 10
-44.9498
 20
23.5549
 11
-44.5637
 21
25.247
  0
LINE
  8
0
 10
-44.5637
 20
25.247
 11
-43
 21
26
  0
LINE
  8
0
 10
-43
 20
26
 11
-41.4363
 21
25.247
  0
LINE
  8
0
 10
-41.4363
 20
25.247
 11
-41.0501
 21
23.5549
  0
LINE
  8
0
 10
-41.0501
 20
23.5549
 11
-42.1322
 21
22.1981
  0
LINE
  8
0
 10
-42.1322
 20
22.1981
 11
-43.8678
 21
22.1981
  0
LINE
  8
0
 10
-86.5768
 20
20.0669
 11
-86.216
 21
21.7645
  0
LINE
  8
0
 10
-86.216
 20
21.7645
 11
-84.6638
 21
22.5409
  0
LINE
  8
0
 10
-84.6638
 20
22.5409
 11
-83.089
 21
21.8113
  0
LINE
  8
0
 10
-83.089
 20
21.8113
 11
-82.6776
 21
20.1253
  0
LINE
  8
0
 10
-82.6776
 20
20.1253
 11
-83.7392
 21
18.7523
  0
LINE
  8
0
 10
-83.7392
 20
18.7523
 11
-85.4746
 21
18.7264
  0
LINE
  8
0
 10
-85.4746
 20
18.7264
 11
-86.5768
 21
20.0669
  0
LINE
  8
0
 10
-69.3019
 20
18.6322
 11
-69.3019
 21
20.3678
  0
LINE
  8
0
 10
-69.3019
 20
20.3678
 11
-67.945
 21
21.4498
  0
LINE
  8
0
 10
-67.945
 20
21.4498
 11
-66.253
 21
21.0637
  0
LINE
  8
0
 10
-66.253
 20
21.0637
 11
-65.5
 21
19.5
  0
LINE
  8
0
 10
-65.5
 20
19.5
 11
-66.253
 21
17.9363
  0
LINE
  8
0
 10
-66.253
 20
17.9363
 11
-67.945
 21
17.5501
  0
LINE
  8
0
 10
-67.945
 20
17.5501
 11
-69.3019
 21
18.6322
  0
LINE
  8
0
 10
18.953
 20
11.6363
 11
18.2
 21
13.2
  0
LINE
  8
0
 10
18.2
 20
13.2
 11
18.953
 21
14.7637
  0
LINE
  8
0
 10
18.953
 20
14.7637
 11
20.645
 21
15.1498
  0
LINE
  8
0
 10
20.645
 20
15.1498
 11
22.0019
 21
14.0678
  0
LINE
  8
0
 10
22.0019
 20
14.0678
 11
22.0019
 21
12.3322
  0
LINE
  8
0
 10
22.0019
 20
12.3322
 11
20.645
 21
11.2501
  0
LINE
  8
0
 10
20.645
 20
11.2501
 11
18.953
 21
11.6363
  0
LINE
  8
0
 10
-89.0718
 20
8.32916
 11
-88.7109
 21
10.0268
  0
LINE
  8
0
 10
-88.7109
 20
10.0268
 11
-87.1587
 21
10.8031
  0
LINE
  8
0
 10
-87.1587
 20
10.8031
 11
-85.584
 21
10.0735
  0
LINE
  8
0
 10
-85.584
 20
10.0735
 11
-85.1725
 21
8.3875
  0
LINE
  8
0
 10
-85.1725
 20
8.3875
 11
-86.2342
 21
7.01457
  0
LINE
  8
0
 10
-86.2342
 20
7.01457
 11
-87.9695
 21
6.9886
  0
LINE
  8
0
 10
-87.9695
 20
6.9886
 11
-89.0718
 21
8.32916
  0
LINE
  8
0
 10
-0.964279
 20
-7.94167
 11
-2.83684
 21
-7.48012
  0
LINE
  8
0
 10
-2.83684
 20
-7.48012
 11
-4.54451
 21
-6.58386
  0
LINE
  8
0
 10
-4.54451
 20
-6.58386
 11
-5.98808
 21
-5.30498
  0
LINE
  8
0
 10
-5.98808
 20
-5.30498
 11
-7.08363
 21
-3.71777
  0
LINE
  8
0
 10
-7.08363
 20
-3.71777
 11
-7.76753
 21
-1.91452
  0
LINE
  8
0
 10
-7.76753
 20
-1.91452
 11
-8
 21
0
  0
LINE
  8
0
 10
-8
 20
0
 11
-7.76753
 21
1.91452
  0
LINE
  8
0
 10
-7.76753
 20
1.91452
 11
-7.08363
 21
3.71777
  0
LINE
  8
0
 10
-7.08363
 20
3.71777
 11
-5.98808
 21
5.30498
  0
LINE
  8
0
 10
-5.98808
 20
5.30498
 11
-4.54451
 21
6.58386
  0
LINE
  8
0
 10
-4.54451
 20
6.58386
 11
-2.83684
 21
7.48012
  0
LINE
  8
0
 10
-2.83684
 20
7.48012
 11
-0.964279
 21
7.94167
  0
LINE
  8
0
 10
-0.964279
 20
7.94167
 11
0.964279
 21
7.94167
  0
LINE
  8
0
 10
0.964279
 20
7.94167
 11
2.83684
 21
7.48012
  0
LINE
  8
0
 10
2.83684
 20
7.48012
 11
4.54451
 21
6.58386
  0
LINE
  8
0
 10
4.54451
 20
6.58386
 11
5.98808
 21
5.30498
  0
LINE
  8
0
 10
5.98808
 20
5.30498
 11
7.08363
 21
3.71777
  0
LINE
  8
0
 10
7.08363
 20
3.71777
 11
7.76753
 21
1.91452
  0
LINE
  8
0
 10
7.76753
 20
1.91452
 11
8
 21
0
  0
LINE
  8
0
 10
8
 20
0
 11
7.76753
 21
-1.91452
  0
LINE
  8
0
 10
7.76753
 20
-1.91452
 11
7.08363
 21
-3.71777
  0
LINE
  8
0
 10
7.08363
 20
-3.71777
 11
5.98808
 21
-5.30498
  0
LINE
  8
0
 10
5.98808
 20
-5.30498
 11
4.54451
 21
-6.58386
  0
LINE
  8
0
 10
4.54451
 20
-6.58386
 11
2.83684
 21
-7.48012
  0
LINE
  8
0
 10
2.83684
 20
-7.48012
 11
0.964279
 21
-7.94167
  0
LINE
  8
0
 10
0.964279
 20
-7.94167
 11
-0.964279
 21
-7.94167
  0
LINE
  8
0
 10
-43.8678
 20
0.198059
 11
-44.9498
 21
1.55495
  0
LINE
  8
0
 10
-44.9498
 20
1.55495
 11
-44.5637
 21
3.24698
  0
LINE
  8
0
 10
-44.5637
 20
3.24698
 11
-43
 21
4
  0
LINE
  8
0
 10
-43
 20
4
 11
-41.4363
 21
3.24698
  0
LINE
  8
0
 10
-41.4363
 20
3.24698
 11
-41.0501
 21
1.55495
  0
LINE
  8
0
 10
-41.0501
 20
1.55495
 11
-42.1322
 21
0.198059
  0
LINE
  8
0
 10
-42.1322
 20
0.198059
 11
-43.8678
 21
0.198059
  0
LINE
  8
0
 10
69.753
 20
-3.56366
 11
69
 21
-2
  0
LINE
  8
0
 10
69
 20
-2
 11
69.753
 21
-0.436325
  0
LINE
  8
0
 10
69.753
 20
-0.436325
 11
71.445
 21
-0.0501404
  0
LINE
  8
0
 10
71.445
 20
-0.0501404
 11
72.8019
 21
-1.13222
  0
LINE
  8
0
 10
72.8019
 20
-1.13222
 11
72.8019
 21
-2.86777
  0
LINE
  8
0
 10
72.8019
 20
-2.86777
 11
71.445
 21
-3.94984
  0
LINE
  8
0
 10
71.445
 20
-3.94984
 11
69.753
 21
-3.56366
  0
LINE
  8
0
 10
-88.7109
 20
-10.0268
 11
-89.0718
 21
-8.32916
  0
LINE
  8
0
 10
-89.0718
 20
-8.32916
 11
-87.9695
 21
-6.9886
  0
LINE
  8
0
 10
-87.9695
 20
-6.9886
 11
-86.2342
 21
-7.01457
  0
LINE
  8
0
 10
-86.2342
 20
-7.01457
 11
-85.1725
 21
-8.3875
  0
LINE
  8
0
 10
-85.1725
 20
-8.3875
 11
-85.584
 21
-10.0735
  0
LINE
  8
0
 10
-85.584
 20
-10.0735
 11
-87.1587
 21
-10.8031
  0
LINE
  8
0
 10
-87.1587
 20
-10.8031
 11
-88.7109
 21
-10.0268
  0
LINE
  8
0
 10
77.75
 20
-24.5
 11
77.75
 21
-11.5
  0
LINE
  8
0
 10
77.75
 20
-11.5
 11
86.25
 21
-11.5
  0
LINE
  8
0
 10
86.25
 20
-11.5
 11
86.25
 21
-24.5
  0
LINE
  8
0
 10
86.25
 20
-24.5
 11
77.75
 21
-24.5
  0
LINE
  8
0
 10
67.1981
 20
-15.8678
 11
67.1981
 21
-14.1322
  0
LINE
  8
0
 10
67.1981
 20
-14.1322
 11
68.5549
 21
-13.0501
  0
LINE
  8
0
 10
68.5549
 20
-13.0501
 11
70.247
 21
-13.4363
  0
LINE
  8
0
 10
70.247
 20
-13.4363
 11
71
 21
-15
  0
LINE
  8
0
 10
71
 20
-15
 11
70.247
 21
-16.5637
  0
LINE
  8
0
 10
70.247
 20
-16.5637
 11
68.5549
 21
-16.9498
  0
LINE
  8
0
 10
68.5549
 20
-16.9498
 11
67.1981
 21
-15.8678
  0
LINE
  8
0
 10
29.1981
 20
-15.8678
 11
29.1981
 21
-14.1322
  0
LINE
  8
0
 10
29.1981
 20
-14.1322
 11
30.5549
 21
-13.0501
  0
LINE
  8
0
 10
30.5549
 20
-13.0501
 11
32.247
 21
-13.4363
  0
LINE
  8
0
 10
32.247
 20
-13.4363
 11
33
 21
-15
  0
LINE
  8
0
 10
33
 20
-15
 11
32.247
 21
-16.5637
  0
LINE
  8
0
 10
32.247
 20
-16.5637
 11
30.5549
 21
-16.9498
  0
LINE
  8
0
 10
30.5549
 20
-16.9498
 11
29.1981
 21
-15.8678
  0
LINE
  8
0
 10
-69.3019
 20
-20.3678
 11
-69.3019
 21
-18.6322
  0
LINE
  8
0
 10
-69.3019
 20
-18.6322
 11
-67.945
 21
-17.5501
  0
LINE
  8
0
 10
-67.945
 20
-17.5501
 11
-66.253
 21
-17.9363
  0
LINE
  8
0
 10
-66.253
 20
-17.9363
 11
-65.5
 21
-19.5
  0
LINE
  8
0
 10
-65.5
 20
-19.5
 11
-66.253
 21
-21.0637
  0
LINE
  8
0
 10
-66.253
 20
-21.0637
 11
-67.945
 21
-21.4498
  0
LINE
  8
0
 10
-67.945
 20
-21.4498
 11
-69.3019
 21
-20.3678
  0
LINE
  8
0
 10
-86.216
 20
-21.7645
 11
-86.5768
 21
-20.0669
  0
LINE
  8
0
 10
-86.5768
 20
-20.0669
 11
-85.4746
 21
-18.7264
  0
LINE
  8
0
 10
-85.4746
 20
-18.7264
 11
-83.7392
 21
-18.7523
  0
LINE
  8
0
 10
-83.7392
 20
-18.7523
 11
-82.6776
 21
-20.1253
  0
LINE
  8
0
 10
-82.6776
 20
-20.1253
 11
-83.089
 21
-21.8113
  0
LINE
  8
0
 10
-83.089
 20
-21.8113
 11
-84.6638
 21
-22.5409
  0
LINE
  8
0
 10
-84.6638
 20
-22.5409
 11
-86.216
 21
-21.7645
  0
LINE
  8
0
 10
0
 20
-36
 11
0
 21
-24
  0
LINE
  8
0
 10
0
 20
-24
 11
10
 21
-24
  0
LINE
  8
0
 10
10
 20
-24
 11
10
 21
-36
  0
LINE
  8
0
 10
10
 20
-36
 11
0
 21
-36
  0
LINE
  8
0
 10
-64.4032
 20
-28.2658
 11
-64.4032
 21
-27.8144
  0
LINE
  8
0
 10
-64.4032
 20
-27.8144
 11
-62.8112
 21
-27.8144
  0
LINE
  8
0
 10
-62.8112
 20
-27.8144
 11
-62.992
 21
-27.6056
  0
LINE
  8
0
 10
-62.992
 20
-27.6056
 11
-63.162
 21
-27.383
  0
LINE
  8
0
 10
-63.162
 20
-27.383
 11
-63.2722
 21
-27.1548
  0
LINE
  8
0
 10
-63.2722
 20
-27.1548
 11
-63.3326
 21
-26.8936
  0
LINE
  8
0
 10
-63.3326
 20
-26.8936
 11
-63.3534
 21
-26.5726
  0
LINE
  8
0
 10
-63.3534
 20
-26.5726
 11
-63.2532
 21
-25.9284
  0
LINE
  8
0
 10
-63.2532
 20
-25.9284
 11
-62.9074
 21
-25.4152
  0
LINE
  8
0
 10
-62.9074
 20
-25.4152
 11
-62.3692
 21
-25.0548
  0
LINE
  8
0
 10
-62.3692
 20
-25.0548
 11
-61.7162
 21
-24.9354
  0
LINE
  8
0
 10
-61.7162
 20
-24.9354
 11
-61.3406
 21
-24.9604
  0
LINE
  8
0
 10
-61.3406
 20
-24.9604
 11
-61.027
 21
-25.0412
  0
LINE
  8
0
 10
-61.027
 20
-25.0412
 11
-60.7502
 21
-25.1878
  0
LINE
  8
0
 10
-60.7502
 20
-25.1878
 11
-60.4854
 21
-25.4094
  0
LINE
  8
0
 10
-60.4854
 20
-25.4094
 11
-60.2464
 21
-25.6866
  0
LINE
  8
0
 10
-60.2464
 20
-25.6866
 11
-60.0918
 21
-25.9792
  0
LINE
  8
0
 10
-60.0918
 20
-25.9792
 11
-60.0158
 21
-26.3044
  0
LINE
  8
0
 10
-60.0158
 20
-26.3044
 11
-60.0112
 21
-26.6798
  0
LINE
  8
0
 10
-60.0112
 20
-26.6798
 11
-60.0518
 21
-26.966
  0
LINE
  8
0
 10
-60.0518
 20
-26.966
 11
-60.127
 21
-27.209
  0
LINE
  8
0
 10
-60.127
 20
-27.209
 11
-60.2448
 21
-27.4244
  0
LINE
  8
0
 10
-60.2448
 20
-27.4244
 11
-60.412
 21
-27.6282
  0
LINE
  8
0
 10
-60.412
 20
-27.6282
 11
-60.587
 21
-27.8144
  0
LINE
  8
0
 10
-60.587
 20
-27.8144
 11
-60.0564
 21
-27.8144
  0
LINE
  8
0
 10
-60.0564
 20
-27.8144
 11
-60.0564
 21
-28.2658
  0
LINE
  8
0
 10
-60.0564
 20
-28.2658
 11
-64.4032
 21
-28.2658
  0
LINE
  8
0
 10
-61.2648
 20
-27.7466
 11
-60.9236
 21
-27.5652
  0
LINE
  8
0
 10
-60.9236
 20
-27.5652
 11
-60.668
 21
-27.298
  0
LINE
  8
0
 10
-60.668
 20
-27.298
 11
-60.5068
 21
-26.9718
  0
LINE
  8
0
 10
-60.5068
 20
-26.9718
 11
-60.4486
 21
-26.6148
  0
LINE
  8
0
 10
-60.4486
 20
-26.6148
 11
-60.5028
 21
-26.2536
  0
LINE
  8
0
 10
-60.5028
 20
-26.2536
 11
-60.6778
 21
-25.9162
  0
LINE
  8
0
 10
-60.6778
 20
-25.9162
 11
-60.9822
 21
-25.6296
  0
LINE
  8
0
 10
-60.9822
 20
-25.6296
 11
-61.2286
 21
-25.49
  0
LINE
  8
0
 10
-61.2286
 20
-25.49
 11
-61.4452
 21
-25.4094
  0
LINE
  8
0
 10
-61.4452
 20
-25.4094
 11
-61.8378
 21
-25.404
  0
LINE
  8
0
 10
-61.8378
 20
-25.404
 11
-62.2136
 21
-25.5206
  0
LINE
  8
0
 10
-62.2136
 20
-25.5206
 11
-62.54
 21
-25.7438
  0
LINE
  8
0
 10
-62.54
 20
-25.7438
 11
-62.783
 21
-26.0588
  0
LINE
  8
0
 10
-62.783
 20
-26.0588
 11
-62.903
 21
-26.3694
  0
LINE
  8
0
 10
-62.903
 20
-26.3694
 11
-62.9336
 21
-26.6786
  0
LINE
  8
0
 10
-62.9336
 20
-26.6786
 11
-62.8824
 21
-26.974
  0
LINE
  8
0
 10
-62.8824
 20
-26.974
 11
-62.7578
 21
-27.2436
  0
LINE
  8
0
 10
-62.7578
 20
-27.2436
 11
-62.5676
 21
-27.4748
  0
LINE
  8
0
 10
-62.5676
 20
-27.4748
 11
-62.3196
 21
-27.6554
  0
LINE
  8
0
 10
-62.3196
 20
-27.6554
 11
-62.0218
 21
-27.7728
  0
LINE
  8
0
 10
-62.0218
 20
-27.7728
 11
-61.6824
 21
-27.8144
  0
LINE
  8
0
 10
-61.6824
 20
-27.8144
 11
-61.2648
 21
-27.7466
  0
LINE
  8
0
 10
-73.677
 20
-48.2028
 11
-74.1568
 21
-48.0222
  0
LINE
  8
0
 10
-74.1568
 20
-48.0222
 11
-74.5542
 21
-47.703
  0
LINE
  8
0
 10
-74.5542
 20
-47.703
 11
-74.8584
 21
-47.2508
  0
LINE
  8
0
 10
-74.8584
 20
-47.2508
 11
-74.9564
 21
-47.0366
  0
LINE
  8
0
 10
-74.9564
 20
-47.0366
 11
-75.0122
 21
-46.8622
  0
LINE
  8
0
 10
-75.0122
 20
-46.8622
 11
-75.036
 21
-46.6802
  0
LINE
  8
0
 10
-75.036
 20
-46.6802
 11
-75.0388
 21
-46.4436
  0
LINE
  8
0
 10
-75.0388
 20
-46.4436
 11
-74.8964
 21
-45.7268
  0
LINE
  8
0
 10
-74.8964
 20
-45.7268
 11
-74.4744
 21
-45.1452
  0
LINE
  8
0
 10
-74.4744
 20
-45.1452
 11
-74.1926
 21
-44.9186
  0
LINE
  8
0
 10
-74.1926
 20
-44.9186
 11
-73.9098
 21
-44.7712
  0
LINE
  8
0
 10
-73.9098
 20
-44.7712
 11
-73.5932
 21
-44.6896
  0
LINE
  8
0
 10
-73.5932
 20
-44.6896
 11
-73.21
 21
-44.6596
  0
LINE
  8
0
 10
-73.21
 20
-44.6596
 11
-72.73
 21
-44.654
  0
LINE
  8
0
 10
-72.73
 20
-44.654
 11
-71.7252
 21
-43.254
  0
LINE
  8
0
 10
-71.7252
 20
-43.254
 11
-70.7202
 21
-41.8484
  0
LINE
  8
0
 10
-70.7202
 20
-41.8484
 11
-71.0532
 21
-41.5096
  0
LINE
  8
0
 10
-71.0532
 20
-41.5096
 11
-71.593
 21
-40.8886
  0
LINE
  8
0
 10
-71.593
 20
-40.8886
 11
-72.0024
 21
-40.2678
  0
LINE
  8
0
 10
-72.0024
 20
-40.2678
 11
-72.299
 21
-39.617
  0
LINE
  8
0
 10
-72.299
 20
-39.617
 11
-72.4986
 21
-38.907
  0
LINE
  8
0
 10
-72.4986
 20
-38.907
 11
-72.5718
 21
-38.5684
  0
LINE
  8
0
 10
-72.5718
 20
-38.5684
 11
-73.1364
 21
-38.5516
  0
LINE
  8
0
 10
-73.1364
 20
-38.5516
 11
-73.7066
 21
-38.5348
  0
LINE
  8
0
 10
-73.7066
 20
-38.5348
 11
-73.8364
 21
-38.8056
  0
LINE
  8
0
 10
-73.8364
 20
-38.8056
 11
-74.0274
 21
-39.105
  0
LINE
  8
0
 10
-74.0274
 20
-39.105
 11
-74.3052
 21
-39.4134
  0
LINE
  8
0
 10
-74.3052
 20
-39.4134
 11
-74.6208
 21
-39.6846
  0
LINE
  8
0
 10
-74.6208
 20
-39.6846
 11
-74.9258
 21
-39.8726
  0
LINE
  8
0
 10
-74.9258
 20
-39.8726
 11
-75.651
 21
-40.0804
  0
LINE
  8
0
 10
-75.651
 20
-40.0804
 11
-76.381
 21
-40.0646
  0
LINE
  8
0
 10
-76.381
 20
-40.0646
 11
-77.0708
 21
-39.833
  0
LINE
  8
0
 10
-77.0708
 20
-39.833
 11
-77.675
 21
-39.3926
  0
LINE
  8
0
 10
-77.675
 20
-39.3926
 11
-78.0342
 21
-38.9302
  0
LINE
  8
0
 10
-78.0342
 20
-38.9302
 11
-78.262
 21
-38.4138
  0
LINE
  8
0
 10
-78.262
 20
-38.4138
 11
-78.3632
 21
-37.8688
  0
LINE
  8
0
 10
-78.3632
 20
-37.8688
 11
-78.3406
 21
-37.3196
  0
LINE
  8
0
 10
-78.3406
 20
-37.3196
 11
-78.1982
 21
-36.791
  0
LINE
  8
0
 10
-78.1982
 20
-36.791
 11
-77.9396
 21
-36.3078
  0
LINE
  8
0
 10
-77.9396
 20
-36.3078
 11
-77.5684
 21
-35.895
  0
LINE
  8
0
 10
-77.5684
 20
-35.895
 11
-77.088
 21
-35.5766
  0
LINE
  8
0
 10
-77.088
 20
-35.5766
 11
-76.6158
 21
-35.3964
  0
LINE
  8
0
 10
-76.6158
 20
-35.3964
 11
-76.1384
 21
-35.3142
  0
LINE
  8
0
 10
-76.1384
 20
-35.3142
 11
-75.6676
 21
-35.3264
  0
LINE
  8
0
 10
-75.6676
 20
-35.3264
 11
-75.2146
 21
-35.4292
  0
LINE
  8
0
 10
-75.2146
 20
-35.4292
 11
-74.7916
 21
-35.6182
  0
LINE
  8
0
 10
-74.7916
 20
-35.6182
 11
-74.4104
 21
-35.8902
  0
LINE
  8
0
 10
-74.4104
 20
-35.8902
 11
-74.0824
 21
-36.2408
  0
LINE
  8
0
 10
-74.0824
 20
-36.2408
 11
-73.8196
 21
-36.6662
  0
LINE
  8
0
 10
-73.8196
 20
-36.6662
 11
-73.6446
 21
-37.0216
  0
LINE
  8
0
 10
-73.6446
 20
-37.0216
 11
-73.1082
 21
-37.0048
  0
LINE
  8
0
 10
-73.1082
 20
-37.0048
 11
-72.5718
 21
-36.9878
  0
LINE
  8
0
 10
-72.5718
 20
-36.9878
 11
-72.4928
 21
-36.5926
  0
LINE
  8
0
 10
-72.4928
 20
-36.5926
 11
-72.1028
 21
-35.4616
  0
LINE
  8
0
 10
-72.1028
 20
-35.4616
 11
-71.4032
 21
-34.3516
  0
LINE
  8
0
 10
-71.4032
 20
-34.3516
 11
-71.2904
 21
-34.2046
  0
LINE
  8
0
 10
-71.2904
 20
-34.2046
 11
-73.3678
 21
-32.4604
  0
LINE
  8
0
 10
-73.3678
 20
-32.4604
 11
-73.7862
 21
-32.1102
  0
LINE
  8
0
 10
-73.7862
 20
-32.1102
 11
-74.1798
 21
-31.7806
  0
LINE
  8
0
 10
-74.1798
 20
-31.7806
 11
-74.54
 21
-31.4786
  0
LINE
  8
0
 10
-74.54
 20
-31.4786
 11
-74.8578
 21
-31.2124
  0
LINE
  8
0
 10
-74.8578
 20
-31.2124
 11
-75.1246
 21
-30.9892
  0
LINE
  8
0
 10
-75.1246
 20
-30.9892
 11
-75.3312
 21
-30.8166
  0
LINE
  8
0
 10
-75.3312
 20
-30.8166
 11
-75.4694
 21
-30.7022
  0
LINE
  8
0
 10
-75.4694
 20
-30.7022
 11
-75.53
 21
-30.654
  0
LINE
  8
0
 10
-75.53
 20
-30.654
 11
-75.592
 21
-30.6252
  0
LINE
  8
0
 10
-75.592
 20
-30.6252
 11
-75.6818
 21
-30.6358
  0
LINE
  8
0
 10
-75.6818
 20
-30.6358
 11
-75.8216
 21
-30.6906
  0
LINE
  8
0
 10
-75.8216
 20
-30.6906
 11
-76.0324
 21
-30.7952
  0
LINE
  8
0
 10
-76.0324
 20
-30.7952
 11
-76.2754
 21
-30.9136
  0
LINE
  8
0
 10
-76.2754
 20
-30.9136
 11
-76.4678
 21
-30.9758
  0
LINE
  8
0
 10
-76.4678
 20
-30.9758
 11
-76.6956
 21
-31.0002
  0
LINE
  8
0
 10
-76.6956
 20
-31.0002
 11
-77.0428
 21
-31.004
  0
LINE
  8
0
 10
-77.0428
 20
-31.004
 11
-77.3748
 21
-30.9994
  0
LINE
  8
0
 10
-77.3748
 20
-30.9994
 11
-77.5976
 21
-30.9778
  0
LINE
  8
0
 10
-77.5976
 20
-30.9778
 11
-77.7718
 21
-30.9302
  0
LINE
  8
0
 10
-77.7718
 20
-30.9302
 11
-77.9576
 21
-30.8458
  0
LINE
  8
0
 10
-77.9576
 20
-30.8458
 11
-78.3858
 21
-30.5756
  0
LINE
  8
0
 10
-78.3858
 20
-30.5756
 11
-78.7452
 21
-30.2262
  0
LINE
  8
0
 10
-78.7452
 20
-30.2262
 11
-79.0196
 21
-29.8156
  0
LINE
  8
0
 10
-79.0196
 20
-29.8156
 11
-79.1936
 21
-29.361
  0
LINE
  8
0
 10
-79.1936
 20
-29.361
 11
-79.2276
 21
-29.0844
  0
LINE
  8
0
 10
-79.2276
 20
-29.0844
 11
-79.2214
 21
-28.7374
  0
LINE
  8
0
 10
-79.2214
 20
-28.7374
 11
-79.1804
 21
-28.3862
  0
LINE
  8
0
 10
-79.1804
 20
-28.3862
 11
-79.109
 21
-28.0966
  0
LINE
  8
0
 10
-79.109
 20
-28.0966
 11
-78.8996
 21
-27.6702
  0
LINE
  8
0
 10
-78.8996
 20
-27.6702
 11
-78.596
 21
-27.293
  0
LINE
  8
0
 10
-78.596
 20
-27.293
 11
-78.2176
 21
-26.9846
  0
LINE
  8
0
 10
-78.2176
 20
-26.9846
 11
-77.7824
 21
-26.7644
  0
LINE
  8
0
 10
-77.7824
 20
-26.7644
 11
-77.4352
 21
-26.6848
  0
LINE
  8
0
 10
-77.4352
 20
-26.6848
 11
-77.0204
 21
-26.6644
  0
LINE
  8
0
 10
-77.0204
 20
-26.6644
 11
-76.6012
 21
-26.701
  0
LINE
  8
0
 10
-76.6012
 20
-26.701
 11
-76.2412
 21
-26.7924
  0
LINE
  8
0
 10
-76.2412
 20
-26.7924
 11
-75.899
 21
-26.9744
  0
LINE
  8
0
 10
-75.899
 20
-26.9744
 11
-75.5688
 21
-27.2392
  0
LINE
  8
0
 10
-75.5688
 20
-27.2392
 11
-75.28
 21
-27.5602
  0
LINE
  8
0
 10
-75.28
 20
-27.5602
 11
-75.0614
 21
-27.9104
  0
LINE
  8
0
 10
-75.0614
 20
-27.9104
 11
-74.861
 21
-28.6548
  0
LINE
  8
0
 10
-74.861
 20
-28.6548
 11
-74.9146
 21
-29.4288
  0
LINE
  8
0
 10
-74.9146
 20
-29.4288
 11
-74.9936
 21
-29.7166
  0
LINE
  8
0
 10
-74.9936
 20
-29.7166
 11
-72.8542
 21
-31.5174
  0
LINE
  8
0
 10
-72.8542
 20
-31.5174
 11
-72.4208
 21
-31.8802
  0
LINE
  8
0
 10
-72.4208
 20
-31.8802
 11
-72.0116
 21
-32.2218
  0
LINE
  8
0
 10
-72.0116
 20
-32.2218
 11
-71.6358
 21
-32.5348
  0
LINE
  8
0
 10
-71.6358
 20
-32.5348
 11
-71.3032
 21
-32.8112
  0
LINE
  8
0
 10
-71.3032
 20
-32.8112
 11
-71.023
 21
-33.0432
  0
LINE
  8
0
 10
-71.023
 20
-33.0432
 11
-70.8046
 21
-33.2238
  0
LINE
  8
0
 10
-70.8046
 20
-33.2238
 11
-70.6572
 21
-33.3442
  0
LINE
  8
0
 10
-70.6572
 20
-33.3442
 11
-70.5906
 21
-33.3974
  0
LINE
  8
0
 10
-70.5906
 20
-33.3974
 11
-70.5156
 21
-33.4324
  0
LINE
  8
0
 10
-70.5156
 20
-33.4324
 11
-70.443
 21
-33.4316
  0
LINE
  8
0
 10
-70.443
 20
-33.4316
 11
-70.3486
 21
-33.388
  0
LINE
  8
0
 10
-70.3486
 20
-33.388
 11
-70.2066
 21
-33.296
  0
LINE
  8
0
 10
-70.2066
 20
-33.296
 11
-69.5332
 21
-32.9206
  0
LINE
  8
0
 10
-69.5332
 20
-32.9206
 11
-68.791
 21
-32.656
  0
LINE
  8
0
 10
-68.791
 20
-32.656
 11
-67.9662
 21
-32.498
  0
LINE
  8
0
 10
-67.9662
 20
-32.498
 11
-67.045
 21
-32.4436
  0
LINE
  8
0
 10
-67.045
 20
-32.4436
 11
-66.4354
 21
-32.4436
  0
LINE
  8
0
 10
-66.4354
 20
-32.4436
 11
-66.4354
 21
-34.645
  0
LINE
  8
0
 10
-66.4354
 20
-34.645
 11
-67.13
 21
-34.645
  0
LINE
  8
0
 10
-67.13
 20
-34.645
 11
-67.8604
 21
-34.6818
  0
LINE
  8
0
 10
-67.8604
 20
-34.6818
 11
-68.4418
 21
-34.8188
  0
LINE
  8
0
 10
-68.4418
 20
-34.8188
 11
-68.9504
 21
-35.0848
  0
LINE
  8
0
 10
-68.9504
 20
-35.0848
 11
-69.4614
 21
-35.5088
  0
LINE
  8
0
 10
-69.4614
 20
-35.5088
 11
-70.0792
 21
-36.301
  0
LINE
  8
0
 10
-70.0792
 20
-36.301
 11
-70.4014
 21
-37.2046
  0
LINE
  8
0
 10
-70.4014
 20
-37.2046
 11
-70.4188
 21
-38.1706
  0
LINE
  8
0
 10
-70.4188
 20
-38.1706
 11
-70.1216
 21
-39.1498
  0
LINE
  8
0
 10
-70.1216
 20
-39.1498
 11
-69.8982
 21
-39.5056
  0
LINE
  8
0
 10
-69.8982
 20
-39.5056
 11
-69.5178
 21
-39.929
  0
LINE
  8
0
 10
-69.5178
 20
-39.929
 11
-69.0002
 21
-40.3764
  0
LINE
  8
0
 10
-69.0002
 20
-40.3764
 11
-68.4808
 21
-40.6608
  0
LINE
  8
0
 10
-68.4808
 20
-40.6608
 11
-67.8826
 21
-40.811
  0
LINE
  8
0
 10
-67.8826
 20
-40.811
 11
-67.13
 21
-40.8548
  0
LINE
  8
0
 10
-67.13
 20
-40.8548
 11
-66.4354
 21
-40.8548
  0
LINE
  8
0
 10
-66.4354
 20
-40.8548
 11
-66.4354
 21
-43.0734
  0
LINE
  8
0
 10
-66.4354
 20
-43.0734
 11
-67.2992
 21
-43.0396
  0
LINE
  8
0
 10
-67.2992
 20
-43.0396
 11
-68.5736
 21
-42.8992
  0
LINE
  8
0
 10
-68.5736
 20
-42.8992
 11
-69.5346
 21
-42.5764
  0
LINE
  8
0
 10
-69.5346
 20
-42.5764
 11
-69.6518
 21
-42.5214
  0
LINE
  8
0
 10
-69.6518
 20
-42.5214
 11
-69.75
 21
-42.4778
  0
LINE
  8
0
 10
-69.75
 20
-42.4778
 11
-69.82
 21
-42.4512
  0
LINE
  8
0
 10
-69.82
 20
-42.4512
 11
-69.8508
 21
-42.4466
  0
LINE
  8
0
 10
-69.8508
 20
-42.4466
 11
-69.9344
 21
-42.564
  0
LINE
  8
0
 10
-69.9344
 20
-42.564
 11
-70.153
 21
-42.869
  0
LINE
  8
0
 10
-70.153
 20
-42.869
 11
-70.4734
 21
-43.3154
  0
LINE
  8
0
 10
-70.4734
 20
-43.3154
 11
-70.8614
 21
-43.858
  0
LINE
  8
0
 10
-70.8614
 20
-43.858
 11
-71.8606
 21
-45.2524
  0
LINE
  8
0
 10
-71.8606
 20
-45.2524
 11
-71.7194
 21
-45.4668
  0
LINE
  8
0
 10
-71.7194
 20
-45.4668
 11
-71.591
 21
-45.7054
  0
LINE
  8
0
 10
-71.591
 20
-45.7054
 11
-71.5086
 21
-45.9574
  0
LINE
  8
0
 10
-71.5086
 20
-45.9574
 11
-71.4694
 21
-46.238
  0
LINE
  8
0
 10
-71.4694
 20
-46.238
 11
-71.471
 21
-46.562
  0
LINE
  8
0
 10
-71.471
 20
-46.562
 11
-71.6152
 21
-47.218
  0
LINE
  8
0
 10
-71.6152
 20
-47.218
 11
-71.9594
 21
-47.735
  0
LINE
  8
0
 10
-71.9594
 20
-47.735
 11
-72.4728
 21
-48.0848
  0
LINE
  8
0
 10
-72.4728
 20
-48.0848
 11
-73.125
 21
-48.2386
  0
LINE
  8
0
 10
-73.125
 20
-48.2386
 11
-73.677
 21
-48.2028
  0
LINE
  8
0
 10
-76.8088
 20
-29.4006
 11
-76.618
 21
-29.2674
  0
LINE
  8
0
 10
-76.618
 20
-29.2674
 11
-76.4806
 21
-29.0824
  0
LINE
  8
0
 10
-76.4806
 20
-29.0824
 11
-76.4276
 21
-28.8758
  0
LINE
  8
0
 10
-76.4276
 20
-28.8758
 11
-76.466
 21
-28.649
  0
LINE
  8
0
 10
-76.466
 20
-28.649
 11
-76.5688
 21
-28.467
  0
LINE
  8
0
 10
-76.5688
 20
-28.467
 11
-76.7192
 21
-28.3346
  0
LINE
  8
0
 10
-76.7192
 20
-28.3346
 11
-76.8996
 21
-28.2562
  0
LINE
  8
0
 10
-76.8996
 20
-28.2562
 11
-77.0936
 21
-28.2366
  0
LINE
  8
0
 10
-77.0936
 20
-28.2366
 11
-77.2828
 21
-28.2804
  0
LINE
  8
0
 10
-77.2828
 20
-28.2804
 11
-77.4504
 21
-28.392
  0
LINE
  8
0
 10
-77.4504
 20
-28.392
 11
-77.579
 21
-28.5764
  0
LINE
  8
0
 10
-77.579
 20
-28.5764
 11
-77.6446
 21
-28.738
  0
LINE
  8
0
 10
-77.6446
 20
-28.738
 11
-77.6632
 21
-28.873
  0
LINE
  8
0
 10
-77.6632
 20
-28.873
 11
-77.634
 21
-29.0036
  0
LINE
  8
0
 10
-77.634
 20
-29.0036
 11
-77.5564
 21
-29.1522
  0
LINE
  8
0
 10
-77.5564
 20
-29.1522
 11
-77.4532
 21
-29.292
  0
LINE
  8
0
 10
-77.4532
 20
-29.292
 11
-77.3372
 21
-29.3846
  0
LINE
  8
0
 10
-77.3372
 20
-29.3846
 11
-77.197
 21
-29.4358
  0
LINE
  8
0
 10
-77.197
 20
-29.4358
 11
-77.0202
 21
-29.4516
  0
LINE
  8
0
 10
-77.0202
 20
-29.4516
 11
-76.8088
 21
-29.4006
  0
LINE
  8
0
 10
-75.595
 20
-38.253
 11
-75.3576
 21
-37.9604
  0
LINE
  8
0
 10
-75.3576
 20
-37.9604
 11
-75.3196
 21
-37.5852
  0
LINE
  8
0
 10
-75.3196
 20
-37.5852
 11
-75.5186
 21
-37.2192
  0
LINE
  8
0
 10
-75.5186
 20
-37.2192
 11
-75.6212
 21
-37.13
  0
LINE
  8
0
 10
-75.6212
 20
-37.13
 11
-75.7156
 21
-37.0768
  0
LINE
  8
0
 10
-75.7156
 20
-37.0768
 11
-75.826
 21
-37.0512
  0
LINE
  8
0
 10
-75.826
 20
-37.0512
 11
-75.9758
 21
-37.0442
  0
LINE
  8
0
 10
-75.9758
 20
-37.0442
 11
-76.1262
 21
-37.0512
  0
LINE
  8
0
 10
-76.1262
 20
-37.0512
 11
-76.2364
 21
-37.0768
  0
LINE
  8
0
 10
-76.2364
 20
-37.0768
 11
-76.3308
 21
-37.13
  0
LINE
  8
0
 10
-76.3308
 20
-37.13
 11
-76.433
 21
-37.2192
  0
LINE
  8
0
 10
-76.433
 20
-37.2192
 11
-76.551
 21
-37.3816
  0
LINE
  8
0
 10
-76.551
 20
-37.3816
 11
-76.6216
 21
-37.5736
  0
LINE
  8
0
 10
-76.6216
 20
-37.5736
 11
-76.6404
 21
-37.7718
  0
LINE
  8
0
 10
-76.6404
 20
-37.7718
 11
-76.6026
 21
-37.9532
  0
LINE
  8
0
 10
-76.6026
 20
-37.9532
 11
-76.4996
 21
-38.1068
  0
LINE
  8
0
 10
-76.4996
 20
-38.1068
 11
-76.3444
 21
-38.2406
  0
LINE
  8
0
 10
-76.3444
 20
-38.2406
 11
-76.166
 21
-38.3352
  0
LINE
  8
0
 10
-76.166
 20
-38.3352
 11
-75.993
 21
-38.371
  0
LINE
  8
0
 10
-75.993
 20
-38.371
 11
-75.595
 21
-38.253
  0
LINE
  8
0
 10
-73.0662
 20
-46.9008
 11
-72.9332
 21
-46.8048
  0
LINE
  8
0
 10
-72.9332
 20
-46.8048
 11
-72.8362
 21
-46.6958
  0
LINE
  8
0
 10
-72.8362
 20
-46.6958
 11
-72.7802
 21
-46.5718
  0
LINE
  8
0
 10
-72.7802
 20
-46.5718
 11
-72.7632
 21
-46.4414
  0
LINE
  8
0
 10
-72.7632
 20
-46.4414
 11
-72.783
 21
-46.3116
  0
LINE
  8
0
 10
-72.783
 20
-46.3116
 11
-72.8376
 21
-46.1908
  0
LINE
  8
0
 10
-72.8376
 20
-46.1908
 11
-72.9246
 21
-46.0864
  0
LINE
  8
0
 10
-72.9246
 20
-46.0864
 11
-73.042
 21
-46.0062
  0
LINE
  8
0
 10
-73.042
 20
-46.0062
 11
-73.1872
 21
-45.958
  0
LINE
  8
0
 10
-73.1872
 20
-45.958
 11
-73.284
 21
-45.9474
  0
LINE
  8
0
 10
-73.284
 20
-45.9474
 11
-73.3646
 21
-45.9618
  0
LINE
  8
0
 10
-73.3646
 20
-45.9618
 11
-73.4436
 21
-46.0064
  0
LINE
  8
0
 10
-73.4436
 20
-46.0064
 11
-73.5372
 21
-46.0878
  0
LINE
  8
0
 10
-73.5372
 20
-46.0878
 11
-73.6686
 21
-46.2318
  0
LINE
  8
0
 10
-73.6686
 20
-46.2318
 11
-73.7404
 21
-46.359
  0
LINE
  8
0
 10
-73.7404
 20
-46.359
 11
-73.741
 21
-46.5014
  0
LINE
  8
0
 10
-73.741
 20
-46.5014
 11
-73.6856
 21
-46.6554
  0
LINE
  8
0
 10
-73.6856
 20
-46.6554
 11
-73.5896
 21
-46.7924
  0
LINE
  8
0
 10
-73.5896
 20
-46.7924
 11
-73.4694
 21
-46.884
  0
LINE
  8
0
 10
-73.4694
 20
-46.884
 11
-73.3174
 21
-46.9374
  0
LINE
  8
0
 10
-73.3174
 20
-46.9374
 11
-73.1886
 21
-46.944
  0
LINE
  8
0
 10
-73.1886
 20
-46.944
 11
-73.0662
 21
-46.9008
  0
LINE
  8
0
 10
-62.1512
 20
-32.3212
 11
-62.6816
 21
-32.0772
  0
LINE
  8
0
 10
-62.6816
 20
-32.0772
 11
-63.0852
 21
-31.6652
  0
LINE
  8
0
 10
-63.0852
 20
-31.6652
 11
-63.3308
 21
-31.1054
  0
LINE
  8
0
 10
-63.3308
 20
-31.1054
 11
-63.3588
 21
-30.8748
  0
LINE
  8
0
 10
-63.3588
 20
-30.8748
 11
-63.3528
 21
-30.6018
  0
LINE
  8
0
 10
-63.3528
 20
-30.6018
 11
-63.3158
 21
-30.331
  0
LINE
  8
0
 10
-63.3158
 20
-30.331
 11
-63.2516
 21
-30.1064
  0
LINE
  8
0
 10
-63.2516
 20
-30.1064
 11
-63.1452
 21
-29.916
  0
LINE
  8
0
 10
-63.1452
 20
-29.916
 11
-62.992
 21
-29.7166
  0
LINE
  8
0
 10
-62.992
 20
-29.7166
 11
-62.8112
 21
-29.508
  0
LINE
  8
0
 10
-62.8112
 20
-29.508
 11
-63.2742
 21
-29.508
  0
LINE
  8
0
 10
-63.2742
 20
-29.508
 11
-63.2742
 21
-29.0562
  0
LINE
  8
0
 10
-63.2742
 20
-29.0562
 11
-60.0564
 21
-29.0562
  0
LINE
  8
0
 10
-60.0564
 20
-29.0562
 11
-60.0564
 21
-29.282
  0
LINE
  8
0
 10
-60.0564
 20
-29.282
 11
-60.06
 21
-29.413
  0
LINE
  8
0
 10
-60.06
 20
-29.413
 11
-60.0848
 21
-29.48
  0
LINE
  8
0
 10
-60.0848
 20
-29.48
 11
-60.1518
 21
-29.5048
  0
LINE
  8
0
 10
-60.1518
 20
-29.5048
 11
-60.2822
 21
-29.508
  0
LINE
  8
0
 10
-60.2822
 20
-29.508
 11
-60.508
 21
-29.508
  0
LINE
  8
0
 10
-60.508
 20
-29.508
 11
-60.3104
 21
-29.7618
  0
LINE
  8
0
 10
-60.3104
 20
-29.7618
 11
-60.1668
 21
-29.9856
  0
LINE
  8
0
 10
-60.1668
 20
-29.9856
 11
-60.0706
 21
-30.2122
  0
LINE
  8
0
 10
-60.0706
 20
-30.2122
 11
-60.0168
 21
-30.4622
  0
LINE
  8
0
 10
-60.0168
 20
-30.4622
 11
-60
 21
-30.7554
  0
LINE
  8
0
 10
-60
 20
-30.7554
 11
-60.1128
 21
-31.3708
  0
LINE
  8
0
 10
-60.1128
 20
-31.3708
 11
-60.4278
 21
-31.8706
  0
LINE
  8
0
 10
-60.4278
 20
-31.8706
 11
-60.9098
 21
-32.2182
  0
LINE
  8
0
 10
-60.9098
 20
-32.2182
 11
-61.5242
 21
-32.3758
  0
LINE
  8
0
 10
-61.5242
 20
-32.3758
 11
-62.1512
 21
-32.3212
  0
LINE
  8
0
 10
-61.222
 20
-31.8192
 11
-60.9174
 21
-31.6468
  0
LINE
  8
0
 10
-60.9174
 20
-31.6468
 11
-60.67
 21
-31.4022
  0
LINE
  8
0
 10
-60.67
 20
-31.4022
 11
-60.5
 21
-31.1008
  0
LINE
  8
0
 10
-60.5
 20
-31.1008
 11
-60.428
 21
-30.7576
  0
LINE
  8
0
 10
-60.428
 20
-30.7576
 11
-60.474
 21
-30.3886
  0
LINE
  8
0
 10
-60.474
 20
-30.3886
 11
-60.6204
 21
-30.054
  0
LINE
  8
0
 10
-60.6204
 20
-30.054
 11
-60.8298
 21
-29.7952
  0
LINE
  8
0
 10
-60.8298
 20
-29.7952
 11
-61.103
 21
-29.6114
  0
LINE
  8
0
 10
-61.103
 20
-29.6114
 11
-61.4394
 21
-29.5022
  0
LINE
  8
0
 10
-61.4394
 20
-29.5022
 11
-61.827
 21
-29.4978
  0
LINE
  8
0
 10
-61.827
 20
-29.4978
 11
-62.2066
 21
-29.6146
  0
LINE
  8
0
 10
-62.2066
 20
-29.6146
 11
-62.5342
 21
-29.8318
  0
LINE
  8
0
 10
-62.5342
 20
-29.8318
 11
-62.766
 21
-30.129
  0
LINE
  8
0
 10
-62.766
 20
-30.129
 11
-62.9088
 21
-30.5908
  0
LINE
  8
0
 10
-62.9088
 20
-30.5908
 11
-62.868
 21
-31.0344
  0
LINE
  8
0
 10
-62.868
 20
-31.0344
 11
-62.6536
 21
-31.4302
  0
LINE
  8
0
 10
-62.6536
 20
-31.4302
 11
-62.2748
 21
-31.749
  0
LINE
  8
0
 10
-62.2748
 20
-31.749
 11
-61.9212
 21
-31.886
  0
LINE
  8
0
 10
-61.9212
 20
-31.886
 11
-61.5636
 21
-31.9042
  0
LINE
  8
0
 10
-61.5636
 20
-31.9042
 11
-61.222
 21
-31.8192
  0
LINE
  8
0
 10
-64.4032
 20
-35.2094
 11
-62.896
 21
-35.2094
  0
LINE
  8
0
 10
-62.896
 20
-35.2094
 11
-62.4108
 21
-35.2092
  0
LINE
  8
0
 10
-62.4108
 20
-35.2092
 11
-62.0386
 21
-35.2068
  0
LINE
  8
0
 10
-62.0386
 20
-35.2068
 11
-61.7616
 21
-35.2012
  0
LINE
  8
0
 10
-61.7616
 20
-35.2012
 11
-61.561
 21
-35.1912
  0
LINE
  8
0
 10
-61.561
 20
-35.1912
 11
-61.4188
 21
-35.1756
  0
LINE
  8
0
 10
-61.4188
 20
-35.1756
 11
-61.3162
 21
-35.1524
  0
LINE
  8
0
 10
-61.3162
 20
-35.1524
 11
-61.2352
 21
-35.121
  0
LINE
  8
0
 10
-61.2352
 20
-35.121
 11
-61.1572
 21
-35.0796
  0
LINE
  8
0
 10
-61.1572
 20
-35.0796
 11
-60.9514
 21
-34.9196
  0
LINE
  8
0
 10
-60.9514
 20
-34.9196
 11
-60.762
 21
-34.7128
  0
LINE
  8
0
 10
-60.762
 20
-34.7128
 11
-60.5928
 21
-34.4642
  0
LINE
  8
0
 10
-60.5928
 20
-34.4642
 11
-60.5758
 21
-33.4538
  0
LINE
  8
0
 10
-60.5758
 20
-33.4538
 11
-60.5532
 21
-32.4436
  0
LINE
  8
0
 10
-60.5532
 20
-32.4436
 11
-60.0564
 21
-32.4436
  0
LINE
  8
0
 10
-60.0564
 20
-32.4436
 11
-60.0564
 21
-33.42
  0
LINE
  8
0
 10
-60.0564
 20
-33.42
 11
-60.0612
 21
-33.9006
  0
LINE
  8
0
 10
-60.0612
 20
-33.9006
 11
-60.0764
 21
-34.2466
  0
LINE
  8
0
 10
-60.0764
 20
-34.2466
 11
-60.1042
 21
-34.4894
  0
LINE
  8
0
 10
-60.1042
 20
-34.4894
 11
-60.1466
 21
-34.6618
  0
LINE
  8
0
 10
-60.1466
 20
-34.6618
 11
-60.2852
 21
-34.9396
  0
LINE
  8
0
 10
-60.2852
 20
-34.9396
 11
-60.496
 21
-35.2104
  0
LINE
  8
0
 10
-60.496
 20
-35.2104
 11
-60.7526
 21
-35.444
  0
LINE
  8
0
 10
-60.7526
 20
-35.444
 11
-61.0274
 21
-35.6102
  0
LINE
  8
0
 10
-61.0274
 20
-35.6102
 11
-61.1284
 21
-35.6536
  0
LINE
  8
0
 10
-61.1284
 20
-35.6536
 11
-61.2278
 21
-35.6866
  0
LINE
  8
0
 10
-61.2278
 20
-35.6866
 11
-61.345
 21
-35.7114
  0
LINE
  8
0
 10
-61.345
 20
-35.7114
 11
-61.4988
 21
-35.729
  0
LINE
  8
0
 10
-61.4988
 20
-35.729
 11
-61.709
 21
-35.7414
  0
LINE
  8
0
 10
-61.709
 20
-35.7414
 11
-61.9942
 21
-35.7502
  0
LINE
  8
0
 10
-61.9942
 20
-35.7502
 11
-62.3744
 21
-35.7568
  0
LINE
  8
0
 10
-62.3744
 20
-35.7568
 11
-62.8678
 21
-35.7626
  0
LINE
  8
0
 10
-62.8678
 20
-35.7626
 11
-64.4032
 21
-35.7798
  0
LINE
  8
0
 10
-64.4032
 20
-35.7798
 11
-64.4032
 21
-35.2094
  0
LINE
  8
0
 10
-62.1356
 20
-40.0414
 11
-62.4896
 21
-39.9572
  0
LINE
  8
0
 10
-62.4896
 20
-39.9572
 11
-62.8952
 21
-39.7446
  0
LINE
  8
0
 10
-62.8952
 20
-39.7446
 11
-63.224
 21
-39.4464
  0
LINE
  8
0
 10
-63.224
 20
-39.4464
 11
-63.4652
 21
-39.076
  0
LINE
  8
0
 10
-63.4652
 20
-39.076
 11
-63.6072
 21
-38.6474
  0
LINE
  8
0
 10
-63.6072
 20
-38.6474
 11
-63.6422
 21
-38.2222
  0
LINE
  8
0
 10
-63.6422
 20
-38.2222
 11
-63.5798
 21
-37.805
  0
LINE
  8
0
 10
-63.5798
 20
-37.805
 11
-63.4256
 21
-37.4154
  0
LINE
  8
0
 10
-63.4256
 20
-37.4154
 11
-63.1838
 21
-37.0724
  0
LINE
  8
0
 10
-63.1838
 20
-37.0724
 11
-62.6478
 21
-36.6732
  0
LINE
  8
0
 10
-62.6478
 20
-36.6732
 11
-61.942
 21
-36.5192
  0
LINE
  8
0
 10
-61.942
 20
-36.5192
 11
-61.51
 21
-36.5238
  0
LINE
  8
0
 10
-61.51
 20
-36.5238
 11
-61.1616
 21
-36.5978
  0
LINE
  8
0
 10
-61.1616
 20
-36.5978
 11
-60.8576
 21
-36.755
  0
LINE
  8
0
 10
-60.8576
 20
-36.755
 11
-60.559
 21
-37.0104
  0
LINE
  8
0
 10
-60.559
 20
-37.0104
 11
-60.3068
 21
-37.3082
  0
LINE
  8
0
 10
-60.3068
 20
-37.3082
 11
-60.1504
 21
-37.6102
  0
LINE
  8
0
 10
-60.1504
 20
-37.6102
 11
-60.0756
 21
-37.9568
  0
LINE
  8
0
 10
-60.0756
 20
-37.9568
 11
-60.0678
 21
-38.3878
  0
LINE
  8
0
 10
-60.0678
 20
-38.3878
 11
-60.1408
 21
-38.8814
  0
LINE
  8
0
 10
-60.1408
 20
-38.8814
 11
-60.321
 21
-39.2926
  0
LINE
  8
0
 10
-60.321
 20
-39.2926
 11
-60.6148
 21
-39.6294
  0
LINE
  8
0
 10
-60.6148
 20
-39.6294
 11
-61.0274
 21
-39.9006
  0
LINE
  8
0
 10
-61.0274
 20
-39.9006
 11
-61.3496
 21
-40.0104
  0
LINE
  8
0
 10
-61.3496
 20
-40.0104
 11
-61.7374
 21
-40.0582
  0
LINE
  8
0
 10
-61.7374
 20
-40.0582
 11
-62.1356
 21
-40.0414
  0
LINE
  8
0
 10
-61.3942
 20
-39.4944
 11
-61.1506
 21
-39.3744
  0
LINE
  8
0
 10
-61.1506
 20
-39.3744
 11
-60.8998
 21
-39.1664
  0
LINE
  8
0
 10
-60.8998
 20
-39.1664
 11
-60.6904
 21
-38.9188
  0
LINE
  8
0
 10
-60.6904
 20
-38.9188
 11
-60.5702
 21
-38.6814
  0
LINE
  8
0
 10
-60.5702
 20
-38.6814
 11
-60.516
 21
-38.2434
  0
LINE
  8
0
 10
-60.516
 20
-38.2434
 11
-60.5914
 21
-37.8356
  0
LINE
  8
0
 10
-60.5914
 20
-37.8356
 11
-60.788
 21
-37.4836
  0
LINE
  8
0
 10
-60.788
 20
-37.4836
 11
-61.0952
 21
-37.2136
  0
LINE
  8
0
 10
-61.0952
 20
-37.2136
 11
-61.2578
 21
-37.123
  0
LINE
  8
0
 10
-61.2578
 20
-37.123
 11
-61.4044
 21
-37.072
  0
LINE
  8
0
 10
-61.4044
 20
-37.072
 11
-61.5828
 21
-37.0494
  0
LINE
  8
0
 10
-61.5828
 20
-37.0494
 11
-61.8402
 21
-37.0442
  0
LINE
  8
0
 10
-61.8402
 20
-37.0442
 11
-62.0984
 21
-37.0494
  0
LINE
  8
0
 10
-62.0984
 20
-37.0494
 11
-62.2696
 21
-37.072
  0
LINE
  8
0
 10
-62.2696
 20
-37.072
 11
-62.4024
 21
-37.123
  0
LINE
  8
0
 10
-62.4024
 20
-37.123
 11
-62.546
 21
-37.2136
  0
LINE
  8
0
 10
-62.546
 20
-37.2136
 11
-62.7662
 21
-37.4036
  0
LINE
  8
0
 10
-62.7662
 20
-37.4036
 11
-62.9524
 21
-37.6144
  0
LINE
  8
0
 10
-62.9524
 20
-37.6144
 11
-63.069
 21
-37.8554
  0
LINE
  8
0
 10
-63.069
 20
-37.8554
 11
-63.1344
 21
-38.1436
  0
LINE
  8
0
 10
-63.1344
 20
-38.1436
 11
-63.143
 21
-38.4386
  0
LINE
  8
0
 10
-63.143
 20
-38.4386
 11
-63.088
 21
-38.6984
  0
LINE
  8
0
 10
-63.088
 20
-38.6984
 11
-62.8178
 21
-39.1222
  0
LINE
  8
0
 10
-62.8178
 20
-39.1222
 11
-62.4126
 21
-39.412
  0
LINE
  8
0
 10
-62.4126
 20
-39.412
 11
-61.9218
 21
-39.544
  0
LINE
  8
0
 10
-61.9218
 20
-39.544
 11
-61.3942
 21
-39.4944
  0
LINE
  8
0
 10
-62.1798
 20
-38.9642
 11
-62.4838
 21
-38.6984
  0
LINE
  8
0
 10
-62.4838
 20
-38.6984
 11
-62.6
 21
-38.2958
  0
LINE
  8
0
 10
-62.6
 20
-38.2958
 11
-62.5022
 21
-37.9166
  0
LINE
  8
0
 10
-62.5022
 20
-37.9166
 11
-62.2332
 21
-37.6346
  0
LINE
  8
0
 10
-62.2332
 20
-37.6346
 11
-61.8348
 21
-37.524
  0
LINE
  8
0
 10
-61.8348
 20
-37.524
 11
-61.6308
 21
-37.5488
  0
LINE
  8
0
 10
-61.6308
 20
-37.5488
 11
-61.4528
 21
-37.6184
  0
LINE
  8
0
 10
-61.4528
 20
-37.6184
 11
-61.3048
 21
-37.7266
  0
LINE
  8
0
 10
-61.3048
 20
-37.7266
 11
-61.1906
 21
-37.8672
  0
LINE
  8
0
 10
-61.1906
 20
-37.8672
 11
-61.1142
 21
-38.0336
  0
LINE
  8
0
 10
-61.1142
 20
-38.0336
 11
-61.0798
 21
-38.2196
  0
LINE
  8
0
 10
-61.0798
 20
-38.2196
 11
-61.0908
 21
-38.419
  0
LINE
  8
0
 10
-61.0908
 20
-38.419
 11
-61.1514
 21
-38.6248
  0
LINE
  8
0
 10
-61.1514
 20
-38.6248
 11
-61.4084
 21
-38.9214
  0
LINE
  8
0
 10
-61.4084
 20
-38.9214
 11
-61.7862
 21
-39.0362
  0
LINE
  8
0
 10
-61.7862
 20
-39.0362
 11
-62.1798
 21
-38.9642
  0
LINE
  8
0
 10
-25
 20
-43
 11
-25
 21
-40
  0
LINE
  8
0
 10
-25
 20
-40
 11
-13
 21
-40
  0
LINE
  8
0
 10
-13
 20
-40
 11
-13
 21
-43
  0
LINE
  8
0
 10
-13
 20
-43
 11
-25
 21
-43
  0
LINE
  8
0
 10
-62.4446
 20
-44.8296
 11
-62.6554
 21
-44.8058
  0
LINE
  8
0
 10
-62.6554
 20
-44.8058
 11
-62.8398
 21
-44.7514
  0
LINE
  8
0
 10
-62.8398
 20
-44.7514
 11
-63.0598
 21
-44.654
  0
LINE
  8
0
 10
-63.0598
 20
-44.654
 11
-63.455
 21
-44.422
  0
LINE
  8
0
 10
-63.455
 20
-44.422
 11
-63.774
 21
-44.1262
  0
LINE
  8
0
 10
-63.774
 20
-44.1262
 11
-64.0252
 21
-43.7586
  0
LINE
  8
0
 10
-64.0252
 20
-43.7586
 11
-64.217
 21
-43.3104
  0
LINE
  8
0
 10
-64.217
 20
-43.3104
 11
-64.2466
 21
-43.1762
  0
LINE
  8
0
 10
-64.2466
 20
-43.1762
 11
-64.2664
 21
-42.9902
  0
LINE
  8
0
 10
-64.2664
 20
-42.9902
 11
-64.2758
 21
-42.7596
  0
LINE
  8
0
 10
-64.2758
 20
-42.7596
 11
-64.2732
 21
-42.4918
  0
LINE
  8
0
 10
-64.2732
 20
-42.4918
 11
-64.2618
 21
-42.1592
  0
LINE
  8
0
 10
-64.2618
 20
-42.1592
 11
-64.2338
 21
-41.9306
  0
LINE
  8
0
 10
-64.2338
 20
-41.9306
 11
-64.1766
 21
-41.7394
  0
LINE
  8
0
 10
-64.1766
 20
-41.7394
 11
-64.0756
 21
-41.521
  0
LINE
  8
0
 10
-64.0756
 20
-41.521
 11
-63.9208
 21
-41.2614
  0
LINE
  8
0
 10
-63.9208
 20
-41.2614
 11
-63.7246
 21
-41.0086
  0
LINE
  8
0
 10
-63.7246
 20
-41.0086
 11
-63.5346
 21
-40.8176
  0
LINE
  8
0
 10
-63.5346
 20
-40.8176
 11
-63.3986
 21
-40.7418
  0
LINE
  8
0
 10
-63.3986
 20
-40.7418
 11
-63.3338
 21
-40.7978
  0
LINE
  8
0
 10
-63.3338
 20
-40.7978
 11
-63.2348
 21
-40.9338
  0
LINE
  8
0
 10
-63.2348
 20
-40.9338
 11
-63.1106
 21
-41.1202
  0
LINE
  8
0
 10
-63.1106
 20
-41.1202
 11
-63.3082
 21
-41.312
  0
LINE
  8
0
 10
-63.3082
 20
-41.312
 11
-63.3964
 21
-41.412
  0
LINE
  8
0
 10
-63.3964
 20
-41.412
 11
-63.4916
 21
-41.5402
  0
LINE
  8
0
 10
-63.4916
 20
-41.5402
 11
-63.583
 21
-41.6796
  0
LINE
  8
0
 10
-63.583
 20
-41.6796
 11
-63.6582
 21
-41.8144
  0
LINE
  8
0
 10
-63.6582
 20
-41.8144
 11
-63.7744
 21
-42.1736
  0
LINE
  8
0
 10
-63.7744
 20
-42.1736
 11
-63.8178
 21
-42.5854
  0
LINE
  8
0
 10
-63.8178
 20
-42.5854
 11
-63.7868
 21
-42.9926
  0
LINE
  8
0
 10
-63.7868
 20
-42.9926
 11
-63.6808
 21
-43.3386
  0
LINE
  8
0
 10
-63.6808
 20
-43.3386
 11
-63.5232
 21
-43.6128
  0
LINE
  8
0
 10
-63.5232
 20
-43.6128
 11
-63.3428
 21
-43.8382
  0
LINE
  8
0
 10
-63.3428
 20
-43.8382
 11
-63.134
 21
-44.0216
  0
LINE
  8
0
 10
-63.134
 20
-44.0216
 11
-62.8902
 21
-44.1684
  0
LINE
  8
0
 10
-62.8902
 20
-44.1684
 11
-62.2572
 21
-44.3324
  0
LINE
  8
0
 10
-62.2572
 20
-44.3324
 11
-61.6316
 21
-44.2378
  0
LINE
  8
0
 10
-61.6316
 20
-44.2378
 11
-61.082
 21
-43.9082
  0
LINE
  8
0
 10
-61.082
 20
-43.9082
 11
-60.6774
 21
-43.367
  0
LINE
  8
0
 10
-60.6774
 20
-43.367
 11
-60.6088
 21
-43.2052
  0
LINE
  8
0
 10
-60.6088
 20
-43.2052
 11
-60.5674
 21
-43.0454
  0
LINE
  8
0
 10
-60.5674
 20
-43.0454
 11
-60.5474
 21
-42.856
  0
LINE
  8
0
 10
-60.5474
 20
-42.856
 11
-60.5418
 21
-42.605
  0
LINE
  8
0
 10
-60.5418
 20
-42.605
 11
-60.5642
 21
-42.2292
  0
LINE
  8
0
 10
-60.5642
 20
-42.2292
 11
-60.6386
 21
-41.919
  0
LINE
  8
0
 10
-60.6386
 20
-41.919
 11
-60.7778
 21
-41.6428
  0
LINE
  8
0
 10
-60.7778
 20
-41.6428
 11
-60.9936
 21
-41.3686
  0
LINE
  8
0
 10
-60.9936
 20
-41.3686
 11
-61.208
 21
-41.1258
  0
LINE
  8
0
 10
-61.208
 20
-41.1258
 11
-61.1008
 21
-40.9338
  0
LINE
  8
0
 10
-61.1008
 20
-40.9338
 11
-61.0112
 21
-40.7978
  0
LINE
  8
0
 10
-61.0112
 20
-40.7978
 11
-60.9428
 21
-40.7418
  0
LINE
  8
0
 10
-60.9428
 20
-40.7418
 11
-60.878
 21
-40.7668
  0
LINE
  8
0
 10
-60.878
 20
-40.7668
 11
-60.7904
 21
-40.8352
  0
LINE
  8
0
 10
-60.7904
 20
-40.8352
 11
-60.6874
 21
-40.9372
  0
LINE
  8
0
 10
-60.6874
 20
-40.9372
 11
-60.5774
 21
-41.0638
  0
LINE
  8
0
 10
-60.5774
 20
-41.0638
 11
-60.4678
 21
-41.205
  0
LINE
  8
0
 10
-60.4678
 20
-41.205
 11
-60.3666
 21
-41.3518
  0
LINE
  8
0
 10
-60.3666
 20
-41.3518
 11
-60.2814
 21
-41.4942
  0
LINE
  8
0
 10
-60.2814
 20
-41.4942
 11
-60.2202
 21
-41.6226
  0
LINE
  8
0
 10
-60.2202
 20
-41.6226
 11
-60.1146
 21
-42.062
  0
LINE
  8
0
 10
-60.1146
 20
-42.062
 11
-60.0778
 21
-42.6
  0
LINE
  8
0
 10
-60.0778
 20
-42.6
 11
-60.1108
 21
-43.1352
  0
LINE
  8
0
 10
-60.1108
 20
-43.1352
 11
-60.2144
 21
-43.5646
  0
LINE
  8
0
 10
-60.2144
 20
-43.5646
 11
-60.3862
 21
-43.8936
  0
LINE
  8
0
 10
-60.3862
 20
-43.8936
 11
-60.6212
 21
-44.1932
  0
LINE
  8
0
 10
-60.6212
 20
-44.1932
 11
-60.907
 21
-44.4498
  0
LINE
  8
0
 10
-60.907
 20
-44.4498
 11
-61.2306
 21
-44.6482
  0
LINE
  8
0
 10
-61.2306
 20
-44.6482
 11
-61.4492
 21
-44.7492
  0
LINE
  8
0
 10
-61.4492
 20
-44.7492
 11
-61.6308
 21
-44.805
  0
LINE
  8
0
 10
-61.6308
 20
-44.805
 11
-61.8414
 21
-44.8294
  0
LINE
  8
0
 10
-61.8414
 20
-44.8294
 11
-62.145
 21
-44.8346
  0
LINE
  8
0
 10
-62.145
 20
-44.8346
 11
-62.4446
 21
-44.8296
  0
LINE
  8
0
 10
-61.1798
 20
-50
 11
-61.7244
 21
-49.995
  0
LINE
  8
0
 10
-61.7244
 20
-49.995
 11
-62.1704
 21
-49.9766
  0
LINE
  8
0
 10
-62.1704
 20
-49.9766
 11
-62.5342
 21
-49.9404
  0
LINE
  8
0
 10
-62.5342
 20
-49.9404
 11
-62.8324
 21
-49.8828
  0
LINE
  8
0
 10
-62.8324
 20
-49.8828
 11
-63.0816
 21
-49.7994
  0
LINE
  8
0
 10
-63.0816
 20
-49.7994
 11
-63.298
 21
-49.6858
  0
LINE
  8
0
 10
-63.298
 20
-49.6858
 11
-63.4978
 21
-49.5376
  0
LINE
  8
0
 10
-63.4978
 20
-49.5376
 11
-63.6976
 21
-49.3506
  0
LINE
  8
0
 10
-63.6976
 20
-49.3506
 11
-63.9172
 21
-49.1016
  0
LINE
  8
0
 10
-63.9172
 20
-49.1016
 11
-64.0864
 21
-48.8344
  0
LINE
  8
0
 10
-64.0864
 20
-48.8344
 11
-64.2082
 21
-48.5458
  0
LINE
  8
0
 10
-64.2082
 20
-48.5458
 11
-64.2846
 21
-48.233
  0
LINE
  8
0
 10
-64.2846
 20
-48.233
 11
-64.3216
 21
-48.0192
  0
LINE
  8
0
 10
-64.3216
 20
-48.0192
 11
-64.3412
 21
-47.9112
  0
LINE
  8
0
 10
-64.3412
 20
-47.9112
 11
-64.3256
 21
-47.7836
  0
LINE
  8
0
 10
-64.3256
 20
-47.7836
 11
-64.2846
 21
-47.5162
  0
LINE
  8
0
 10
-64.2846
 20
-47.5162
 11
-64.0744
 21
-46.8666
  0
LINE
  8
0
 10
-64.0744
 20
-46.8666
 11
-63.6892
 21
-46.3408
  0
LINE
  8
0
 10
-63.6892
 20
-46.3408
 11
-63.156
 21
-45.9652
  0
LINE
  8
0
 10
-63.156
 20
-45.9652
 11
-62.5008
 21
-45.7662
  0
LINE
  8
0
 10
-62.5008
 20
-45.7662
 11
-62.2718
 21
-45.7454
  0
LINE
  8
0
 10
-62.2718
 20
-45.7454
 11
-61.9288
 21
-45.7276
  0
LINE
  8
0
 10
-61.9288
 20
-45.7276
 11
-61.5188
 21
-45.7146
  0
LINE
  8
0
 10
-61.5188
 20
-45.7146
 11
-61.0894
 21
-45.7096
  0
LINE
  8
0
 10
-61.0894
 20
-45.7096
 11
-60.0564
 21
-45.7096
  0
LINE
  8
0
 10
-60.0564
 20
-45.7096
 11
-60.0564
 21
-46.2066
  0
LINE
  8
0
 10
-60.0564
 20
-46.2066
 11
-61.3152
 21
-46.2292
  0
LINE
  8
0
 10
-61.3152
 20
-46.2292
 11
-62.0196
 21
-46.2418
  0
LINE
  8
0
 10
-62.0196
 20
-46.2418
 11
-62.4276
 21
-46.263
  0
LINE
  8
0
 10
-62.4276
 20
-46.263
 11
-62.6618
 21
-46.3054
  0
LINE
  8
0
 10
-62.6618
 20
-46.3054
 11
-62.8452
 21
-46.3816
  0
LINE
  8
0
 10
-62.8452
 20
-46.3816
 11
-63.3858
 21
-46.7832
  0
LINE
  8
0
 10
-63.3858
 20
-46.7832
 11
-63.7146
 21
-47.3194
  0
LINE
  8
0
 10
-63.7146
 20
-47.3194
 11
-63.8106
 21
-47.9288
  0
LINE
  8
0
 10
-63.8106
 20
-47.9288
 11
-63.6524
 21
-48.5492
  0
LINE
  8
0
 10
-63.6524
 20
-48.5492
 11
-63.3916
 21
-48.9458
  0
LINE
  8
0
 10
-63.3916
 20
-48.9458
 11
-63.048
 21
-49.2266
  0
LINE
  8
0
 10
-63.048
 20
-49.2266
 11
-62.6056
 21
-49.402
  0
LINE
  8
0
 10
-62.6056
 20
-49.402
 11
-62.0492
 21
-49.4808
  0
LINE
  8
0
 10
-62.0492
 20
-49.4808
 11
-61.5242
 21
-49.5088
  0
LINE
  8
0
 10
-61.5242
 20
-49.5088
 11
-61.5242
 21
-47.008
  0
LINE
  8
0
 10
-61.5242
 20
-47.008
 11
-61.0162
 21
-47.008
  0
LINE
  8
0
 10
-61.0162
 20
-47.008
 11
-61.0162
 21
-49.492
  0
LINE
  8
0
 10
-61.0162
 20
-49.492
 11
-60.0564
 21
-49.492
  0
LINE
  8
0
 10
-60.0564
 20
-49.492
 11
-60.0564
 21
-50
  0
LINE
  8
0
 10
-60.0564
 20
-50
 11
-61.1798
 21
-50
  0
LINE
  8
0
 10
29.1981
 20
-53.8678
 11
29.1981
 21
-52.1322
  0
LINE
  8
0
 10
29.1981
 20
-52.1322
 11
30.5549
 21
-51.0501
  0
LINE
  8
0
 10
30.5549
 20
-51.0501
 11
32.247
 21
-51.4363
  0
LINE
  8
0
 10
32.247
 20
-51.4363
 11
33
 21
-53
  0
LINE
  8
0
 10
33
 20
-53
 11
32.247
 21
-54.5637
  0
LINE
  8
0
 10
32.247
 20
-54.5637
 11
30.5549
 21
-54.9498
  0
LINE
  8
0
 10
30.5549
 20
-54.9498
 11
29.1981
 21
-53.8678
  0
LINE
  8
0
 10
67.1981
 20
-53.8678
 11
67.1981
 21
-52.1322
  0
LINE
  8
0
 10
67.1981
 20
-52.1322
 11
68.5549
 21
-51.0501
  0
LINE
  8
0
 10
68.5549
 20
-51.0501
 11
70.247
 21
-51.4363
  0
LINE
  8
0
 10
70.247
 20
-51.4363
 11
71
 21
-53
  0
LINE
  8
0
 10
71
 20
-53
 11
70.247
 21
-54.5637
  0
LINE
  8
0
 10
70.247
 20
-54.5637
 11
68.5549
 21
-54.9498
  0
LINE
  8
0
 10
68.5549
 20
-54.9498
 11
67.1981
 21
-53.8678
  0
LINE
  8
0
 10
45.2899
 20
-72.6985
 11
43.622
 21
-71.6864
  0
LINE
  8
0
 10
43.622
 20
-71.6864
 11
42.4685
 21
-70.1131
  0
LINE
  8
0
 10
42.4685
 20
-70.1131
 11
42.0048
 21
-68.2181
  0
LINE
  8
0
 10
42.0048
 20
-68.2181
 11
42.3015
 21
-66.2899
  0
LINE
  8
0
 10
42.3015
 20
-66.2899
 11
43.3136
 21
-64.622
  0
LINE
  8
0
 10
43.3136
 20
-64.622
 11
44.8869
 21
-63.4685
  0
LINE
  8
0
 10
44.8869
 20
-63.4685
 11
46.7819
 21
-63.0048
  0
LINE
  8
0
 10
46.7819
 20
-63.0048
 11
48.7101
 21
-63.3015
  0
LINE
  8
0
 10
48.7101
 20
-63.3015
 11
50.3779
 21
-64.3136
  0
LINE
  8
0
 10
50.3779
 20
-64.3136
 11
51.5315
 21
-65.8869
  0
LINE
  8
0
 10
51.5315
 20
-65.8869
 11
51.9952
 21
-67.7819
  0
LINE
  8
0
 10
51.9952
 20
-67.7819
 11
51.6985
 21
-69.7101
  0
LINE
  8
0
 10
51.6985
 20
-69.7101
 11
50.6864
 21
-71.3779
  0
LINE
  8
0
 10
50.6864
 20
-71.3779
 11
49.1131
 21
-72.5315
  0
LINE
  8
0
 10
49.1131
 20
-72.5315
 11
47.2181
 21
-72.9952
  0
LINE
  8
0
 10
47.2181
 20
-72.9952
 11
45.2899
 21
-72.6985
  0
ENDSEC
  0
SECTION
  2
OBJECTS
  0
DICTIONARY
  0
ENDSEC
  0
EOF
